<?xml version="1.0" encoding="UTF-8"?>
<svg id="Layer_1" width="26px" data-name="Layer 1" xmlns="http://www.w3.org/2000/svg" viewBox="0 0 988.08 1036.52">
  <defs>
    <style>
      .cls-1 {
        fill: #fff;
      }

      .cls-1, .cls-2 {
        stroke-width: 0px;
      }

      .cls-2 {
        fill: #3e3e3e;
      }
    </style>
  </defs>
  <path class="cls-2" d="m517.24,35.98c-4.27-2.52-8.5-5.12-12.82-7.55-3.54-1.99-3.82-4.59-1.18-7.25,2.44-2.46,5.17-4.76,8.11-6.57,13.09-8.07,27.41-13.03,42.66-14.49,4.86-.47,10.73.39,14.86,2.82,35.85,21.09,74.29,36.78,111.75,54.5,32.75,15.5,63.72,33.59,92.39,56.16,24.36,19.18,49.37,37.45,71.25,59.53,72.89,73.56,118.11,161.47,136.15,263.38,6.44,36.4,9.19,73.22,6.84,110.03-4.56,71.5-18.71,140.92-50.34,205.9-23.47,48.21-55.48,90.14-94.49,126.71-70.3,65.91-153.38,108.69-245.72,134.25-67.35,18.65-136,26.28-205.79,21.89-62.92-3.96-123.64-17.41-180.71-44.96-60.81-29.36-110.81-71.11-145.9-129.48-22.69-37.75-37.45-78.68-47.44-121.41C1.08,671.89-2.62,603.4,1.64,534.33c4.96-80.46,20.44-158.79,48.23-234.54,17.93-48.86,40.71-95.25,71.97-137.11,24.79-33.2,53.79-61.75,90.85-81.3,21.22-11.2,44.2-16.55,67.51-20.83,49.71-9.13,99.94-14.12,150.27-18,28.07-2.16,56.2-3.56,84.31-5.3.77-.05,1.54-.15,2.31-.23.05-.34.1-.68.15-1.03ZM64.45,544.01c-.18,75.43,5.29,129.34,19.24,182.19,9.18,34.78,21.78,68.22,41.7,98.44,23.2,35.2,55.08,60.81,91.51,81.08,55.55,30.9,115.72,47.19,178.39,54.83,57.05,6.96,113.95,5.59,170.79-3.6,79.31-12.82,146.88-47.97,203.65-104.47,41.2-41,73.44-88.24,97.67-140.95,37.16-80.86,54.38-165.51,46.64-254.58-6.17-70.89-28.81-135.87-71.31-193.42-18.51-25.06-39.46-48.02-64.68-66.32-27.27-19.78-57.24-35.28-87.26-50.48-1.7-.86-4.42-.61-6.36.04-8.51,2.84-16.8,6.38-25.38,8.98-10.07,3.05-19.57,2.01-29.3-3.21-25.08-13.46-50.45-26.4-76.07-38.8-24.04-11.64-49.67-18.89-76.32-20.26-28.68-1.48-57.26,1.69-85.58,6.48-43.69,7.39-85.65,20.62-126.91,36.61-34.44,13.35-63.91,33.32-88.28,61.01-32.63,37.07-54.91,80.07-71.6,126.08-28.25,77.87-40.13,158.61-40.54,220.34Z"/>
  <path class="cls-1" d="m64.45,544.01c.41-61.73,12.29-142.47,40.54-220.34,16.69-46.01,38.98-89.01,71.6-126.08,24.37-27.69,53.84-47.65,88.28-61.01,41.26-16,83.22-29.23,126.91-36.61,28.32-4.79,56.9-7.95,85.58-6.48,26.65,1.37,52.28,8.62,76.32,20.26,25.62,12.41,50.99,25.35,76.07,38.8,9.73,5.22,19.22,6.26,29.3,3.21,8.58-2.6,16.87-6.14,25.38-8.98,1.94-.65,4.66-.9,6.36-.04,30.03,15.2,60,30.7,87.26,50.48,25.22,18.29,46.17,41.26,64.68,66.32,42.5,57.54,65.14,122.53,71.31,193.42,7.75,89.07-9.47,173.73-46.64,254.58-24.22,52.7-56.47,99.95-97.67,140.95-56.77,56.5-124.35,91.65-203.65,104.47-56.84,9.19-113.74,10.56-170.79,3.6-62.67-7.65-122.84-23.93-178.39-54.83-36.44-20.27-68.32-45.88-91.51-81.08-19.91-30.22-32.52-63.66-41.7-98.44-13.95-52.85-19.42-106.75-19.24-182.19Zm429.41,231.87c45.89-.82,86.95-7.43,126.17-23.5,39.55-16.21,73.26-40.08,97.46-75.96,16.9-25.06,26.48-52.87,30.07-82.8.49-4.07.65-8.04-4.07-10.2-4.86-2.22-8.4-.16-11.49,3.26-2.12,2.34-4.04,4.87-5.92,7.41-35.56,48.2-81.84,81.56-138.95,99.51-57.82,18.17-116.4,18.54-175.23,5.55-48.09-10.62-92.66-29.33-131.49-60.2-22.33-17.76-40.9-38.64-50.77-66.08-2.08-5.79-3.7-11.77-6.18-17.38-2.9-6.54-6.58-8.15-12.69-6.68-6.08,1.47-8.75,4.8-8.79,11.55-.19,31.5,7.24,61.09,22.98,88.4,20.63,35.82,50.68,61.94,86.34,81.85,57.85,32.3,120.49,45.34,182.57,45.25Zm-131.86-348.54c-.35-2.97-.64-6.96-1.3-10.89-4.01-23.83-22.54-39.91-45.53-39.61-23.5.31-38.2,12.03-41.62,34.79-1.26,8.36-.97,17.45.9,25.69,6.8,29.99,39.65,44.6,66.92,30.11,15.49-8.23,19.87-22.77,20.62-40.08Zm239.11,1.21c.15,9.37,2.74,19.61,8.39,28.93,6.4,10.54,15.07,18.22,27.77,19.95,32.18,4.37,60.25-26.74,53.43-59.11-4.64-22.04-25.71-38.16-47.65-35.25-26.14,3.46-41.88,18.24-41.94,45.49Z"/>
  <path class="cls-2" d="m493.86,775.88c-62.08.09-124.72-12.95-182.57-45.25-35.66-19.91-65.71-46.04-86.34-81.85-15.73-27.31-23.17-56.9-22.98-88.4.04-6.75,2.71-10.08,8.79-11.55,6.12-1.48,9.79.13,12.69,6.68,2.48,5.61,4.09,11.59,6.18,17.38,9.88,27.43,28.44,48.32,50.77,66.08,38.83,30.87,83.4,49.57,131.49,60.2,58.83,12.99,117.41,12.63,175.23-5.55,57.11-17.95,103.39-51.31,138.95-99.51,1.88-2.54,3.8-5.07,5.92-7.41,3.1-3.42,6.63-5.48,11.49-3.26,4.72,2.16,4.56,6.13,4.07,10.2-3.59,29.93-13.16,57.74-30.07,82.8-24.21,35.88-57.91,59.74-97.46,75.96-39.22,16.08-80.28,22.69-126.17,23.5Z"/>
  <path class="cls-2" d="m362,427.34c-.75,17.32-5.14,31.85-20.62,40.08-27.28,14.5-60.12-.12-66.92-30.11-1.87-8.24-2.15-17.33-.9-25.69,3.42-22.76,18.11-34.48,41.62-34.79,22.99-.3,41.51,15.78,45.53,39.61.66,3.93.95,7.91,1.3,10.89Z"/>
  <path class="cls-2" d="m601.11,428.55c.07-27.24,15.8-42.02,41.94-45.49,21.94-2.91,43.01,13.21,47.65,35.25,6.82,32.36-21.25,63.48-53.43,59.11-12.7-1.73-21.37-9.4-27.77-19.95-5.66-9.32-8.24-19.56-8.39-28.93Z"/>
</svg>