<?xml version="1.0" encoding="UTF-8"?>
<svg id="Layer_1" width="26px" data-name="Layer 1" xmlns="http://www.w3.org/2000/svg" viewBox="0 0 24.53 23.93">
  <defs>
    <style>
      .cls-1, .cls-2 {
        fill: #fff;
        stroke-width: 0px;
      }

      .cls-2 {
        fill-rule: evenodd;
      }
    </style>
  </defs>
  <path class="cls-2" d="m12.27,0C5.49,0,0,5.49,0,12.27c0,5.42,3.51,10.02,8.39,11.64.61.11.84-.27.84-.59,0-.29-.01-1.26-.02-2.28-3.41.74-4.13-1.45-4.13-1.45-.56-1.42-1.36-1.79-1.36-1.79-1.11-.76.08-.75.08-.75,1.23.09,1.88,1.26,1.88,1.26,1.09,1.87,2.87,1.33,3.57,1.02.11-.79.43-1.33.78-1.64-2.72-.31-5.59-1.36-5.59-6.06,0-1.34.48-2.43,1.26-3.29-.13-.31-.55-1.56.12-3.25,0,0,1.03-.33,3.37,1.26.98-.27,2.03-.41,3.07-.41,1.04,0,2.09.14,3.07.41,2.34-1.59,3.37-1.26,3.37-1.26.67,1.69.25,2.94.12,3.25.79.86,1.26,1.95,1.26,3.29,0,4.71-2.87,5.75-5.6,6.05.44.38.83,1.13.83,2.27,0,1.64-.01,2.96-.01,3.37,0,.33.22.71.84.59,4.87-1.62,8.38-6.22,8.38-11.64C24.53,5.49,19.04,0,12.27,0h0Z"/>
  <path class="cls-1" d="m4.65,17.61c-.03.06-.12.08-.21.04-.09-.04-.14-.12-.11-.18.03-.06.12-.08.21-.04.09.04.14.12.11.18h0Zm.5.55c-.06.05-.17.03-.25-.06-.08-.09-.1-.2-.04-.25.06-.05.17-.03.25.06.08.09.1.2.03.25h0Zm.48.71c-.08.05-.2,0-.27-.11-.08-.11-.08-.24,0-.29.08-.05.2,0,.27.1.07.11.07.24,0,.29h0Zm.66.68c-.07.07-.21.05-.32-.05-.11-.1-.14-.24-.07-.31.07-.07.21-.05.32.05.11.1.14.24.07.31h0Zm.91.4c-.03.1-.17.14-.31.1-.14-.04-.23-.15-.2-.25.03-.1.17-.14.31-.1.14.04.23.15.2.25Zm1,.07c0,.1-.11.18-.26.19-.15,0-.27-.08-.27-.18,0-.1.12-.18.26-.19.15,0,.27.08.27.18h0Zm.93-.16c.02.1-.08.2-.23.23-.14.03-.27-.03-.29-.13-.02-.1.09-.2.23-.23.15-.02.28.03.29.13h0Z"/>
</svg>