<?xml version="1.0" encoding="UTF-8"?>
<svg id="Layer_1" data-name="Layer 1" width="26px" xmlns="http://www.w3.org/2000/svg" viewBox="0 0 22.76 22.5">
  <defs>
    <style>
      .cls-1 {
        fill: #fefefe;
      }

      .cls-1, .cls-2, .cls-3, .cls-4, .cls-5, .cls-6, .cls-7, .cls-8, .cls-9, .cls-10, .cls-11, .cls-12, .cls-13, .cls-14, .cls-15, .cls-16, .cls-17, .cls-18, .cls-19, .cls-20, .cls-21 {
        stroke-width: 0px;
      }

      .cls-2 {
        fill: #6cb960;
      }

      .cls-3 {
        fill: #959d64;
      }

      .cls-4 {
        fill: none;
      }

      .cls-5 {
        fill: #90e59a;
      }

      .cls-6 {
        fill: #ddc377;
      }

      .cls-7 {
        fill: #fff;
      }

      .cls-8 {
        fill: #8fe772;
      }

      .cls-9 {
        fill: #dcc576;
      }

      .cls-10 {
        fill: #e1cb86;
      }

      .cls-11 {
        fill: #d3d3d3;
      }

      .cls-12 {
        fill: #231f20;
      }

      .cls-13 {
        fill: #97eb74;
      }

      .cls-14 {
        fill: #84cb71;
      }

      .cls-15 {
        fill: #77c66c;
      }

      .cls-16 {
        fill: #87de71;
      }

      .cls-17 {
        fill: #75d66f;
      }

      .cls-18 {
        fill: #d07b84;
      }

      .cls-19 {
        fill: #5cce74;
      }

      .cls-20 {
        fill: #a9f37e;
      }

      .cls-21 {
        fill: #f5d776;
      }
    </style>
  </defs>
  <path class="cls-7" d="m3.93,6.35V2.1c0-1.02.71-1.71,1.72-1.71h10.19c.33,0,.62.1.86.34l2.58,2.63c.24.24.33.57.33.9v8.11h.4V4.06c0-.36-.14-.69-.39-.94l-2.72-2.73c-.25-.25-.59-.39-.94-.39H5.48c-1.06,0-1.93.87-1.93,1.93v4.6l.38-.18Zm-.38,8.57v5.65c0,1.06.87,1.93,1.93,1.93h2.45v-.39h-2.28c-1.01,0-1.72-.69-1.72-1.71v-5.3l-.38-.18Z"/>
  <path class="cls-7" d="m18.66,3.75h-2.37V1.26c0-.18,0-.33-.18-.33s-.18.15-.18.33v2.51c0,.18.15.33.33.33h2.4c.18,0,.33,0,.33-.18s-.15-.18-.33-.18Z"/>
  <path class="cls-7" d="m9.87,15.57c-.59,0-.72.25-.72.46v2.62c0,.21.12.46.72.46s.72-.25.72-.46v-2.62c0-.21-.12-.46-.72-.46Zm-.34.59c0-.21.1-.3.34-.3s.34.09.34.3v2.37c0,.21-.1.3-.34.3s-.34-.09-.34-.3v-2.37Z"/>
  <path class="cls-7" d="m11.7,13.04h-.38v2.11h-.25v.3h.25v4.09h.38v-4.09h.59v-.3h-.59v-2.11Z"/>
  <path class="cls-7" d="m13.17,15.57c-.59,0-.72.25-.72.46v2.62c0,.21.12.46.72.46s.72-.25.72-.46v-.42h-.38v.3c0,.21-.1.3-.34.3s-.34-.09-.34-.3v-.72c.09.03.21.04.34.04.59,0,.72-.25.72-.46v-1.35c0-.21-.12-.47-.71-.47Zm-.34.59c0-.21.1-.3.34-.3s.34.09.34.3v1.1c0,.21-.1.3-.34.3s-.34-.09-.34-.3v-1.1Z"/>
  <path class="cls-7" d="m15.19,15.57c-.59,0-.72.25-.72.46v4.68h.38v-1.64c.09.03.21.04.34.04.59,0,.72-.25.72-.46v-2.62c0-.21-.12-.46-.72-.46Zm-.33.59c0-.21.1-.3.34-.3s.34.09.34.3v2.37c0,.21-.1.3-.34.3s-.34-.09-.34-.3v-2.37Z"/>
  <path class="cls-7" d="m17.21,15.57c-.59,0-.72.25-.72.46v.42h.38v-.3c0-.21.1-.3.34-.3s.34.09.34.3v.72c-.09-.03-.21-.04-.34-.04-.59,0-.72.25-.72.46v1.35c0,.21.12.46.72.46s.72-.25.72-.46v-2.62c0-.21-.13-.46-.72-.46Zm-.34,1.86c0-.21.1-.3.34-.3s.34.09.34.3v1.1c0,.21-.1.3-.34.3s-.34-.09-.34-.3v-1.1Z"/>
  <path class="cls-7" d="m19.59,15.61c-.09-.03-.21-.04-.34-.04-.59,0-.72.25-.72.46v2.62c0,.21.12.46.72.46s.72-.25.72-.46v-5.61h-.38v2.57h0Zm-.67.55c0-.21.1-.3.34-.3s.34.09.34.3v2.37c0,.21-.1.3-.34.3s-.34-.09-.34-.3v-2.37Z"/>
  <path class="cls-7" d="m20.95,15.57h-.38v.84h-.42v.3h.42v.84h.38v-.84h.42v-.3h-.42v-.84Z"/>
  <path class="cls-7" d="m22.34,16.42v-.84h-.38v.84h-.42v.3h.42v.84h.38v-.84h.42v-.3h-.42Z"/>
  <path class="cls-7" d="m8.27,13.04c-.59,0-.72.25-.72.46v7.95h.38v-7.82c0-.21.1-.3.34-.3s.34.09.34.3v5.49h.38v-5.61c0-.21-.13-.46-.72-.46Z"/>
  <path class="cls-5" d="m3.77,6.83c.36-.36.89-.46,1.36-.61.54-.03,1.09.14,1.58.36.21.09.2.34.25.53-.15.03-.31.06-.46.1.07-.11.13-.21.2-.32,0-.1-.12-.14-.18-.21l-.24.17-.17-.14c-.15.02-.31.04-.45-.04-.24-.11-.5-.19-.76-.16-.12.05-.21.15-.31.23,0-.04,0-.13,0-.17-.06.06-.11.13-.16.2-.37.04-.54.42-.46.75-.08.06-.16.12-.24.18.09-.17.16-.35.06-.53-.27.08-.3.38-.42.6-.13.24-.35.42-.45.66,0,.14.01.27.03.41-.1-.03-.21-.06-.3-.09.26-.7.57-1.42,1.14-1.92Z"/>
  <path class="cls-19" d="m4.57,6.75c.1-.08.19-.18.31-.23.27-.03.52.06.76.16-.03.15-.09.3-.15.43-.21-.11-.41-.22-.6-.35l.12.23c-.04.06-.09.12-.13.18-.09-.11-.17-.22-.25-.34-.03.17-.15.29-.33.2.04-.09.08-.18.12-.26.05-.07.11-.13.16-.2,0,.04,0,.12,0,.17Z"/>
  <path class="cls-17" d="m5.64,6.68c.14.08.3.06.45.04l.17.14.24-.17c.06.07.18.11.18.21-.06.11-.13.21-.2.32-.04,0-.12.03-.15.04.08.09.15.19.23.28-.33.02-.56-.21-.81-.37-.23.03-.39.28-.63.3-.12-.05-.22-.12-.33-.19-.04.12-.06.25-.14.36-.11.07-.24.07-.37.11,0,.06.01.12.02.17-.13-.13-.3-.25-.48-.16.14.14-.07.2-.16.26-.18.1-.39.24-.41.47-.05.13,0,.34-.15.41-.18.05-.36.02-.53.01.01-.04.03-.12.05-.17.1.03.21.06.3.09-.02-.14-.04-.27-.03-.41.1-.25.32-.43.45-.66.12-.21.15-.51.42-.6.1.18.03.36-.06.53.08-.06.15-.12.24-.18-.08-.33.09-.71.46-.75-.04.09-.08.18-.12.26.17.09.3-.03.33-.2.08.12.17.23.25.34.04-.06.09-.12.13-.18l-.12-.23c.2.12.4.24.6.35.06-.13.11-.27.14-.43m-1.71,2.73c.09.02.18.03.28.06-.11.29-.26.58-.24.9.06.21.23.36.36.53-.19.06-.45.01-.58.19-.08.34.24.54.44.75-.29-.11-.62-.26-.72-.58.14-.18.32-.32.5-.45-.27-.4-.38-.99-.03-1.38m2.97.72c.07.06.14.12.21.18,0,.12.02.24.02.35-.12-.15-.23-.32-.23-.53m1.83.09c.07-.1.2-.09.27,0,.15.19.23.41.33.63.12,0,.25.02.37.03-.24.09-.48.23-.51.51-.1-.15.05-.28.11-.41-.14-.29-.47-.43-.57-.75m-3.5.18l.07-.04c.01.19.1.42-.04.58-.14-.01-.28-.02-.42-.05.18-.12.32-.27.38-.49m1.9.26c.1.14.22.26.35.37.14-.16.44-.41.57-.11-.21.1-.46.17-.53.42,0,0,0,.02,0,.03.03.22.11.43.18.64-.47-.3-.19-.96-.55-1.35m2.56.06c.2.02.42.07.57.22-.19-.01-.39,0-.57-.07v-.15Zm-.51,1.11c.24.11.48.22.74.31.15-.06.35-.38.47-.15-.19.17-.45.35-.72.29-.21-.1-.34-.3-.5-.45m-6.8.04s.14.02.19.03c.21.48.21,1.03.5,1.47.16.27.3.54.45.81.16.28.43.47.69.66.54.4,1.43.34,1.81-.25.24-.52-.06-1.08-.27-1.56-.36-.57-1.3-.14-1.27.48-.11-.61.68-1.13,1.2-.82.37.24.48.69.62,1.08.17.47-.08,1.02-.52,1.23-.34.22-.76.13-1.14.13-.52-.03-.86-.45-1.2-.79-.33-.4-.54-.88-.8-1.34-.14-.36-.21-.75-.24-1.15m2.78,1.57c.06.07.11.15.17.22-.15.19-.38.18-.59.15-.09-.09-.18-.19-.26-.28.21.12.44.38.69.22,0-.1,0-.2,0-.3Z"/>
  <path class="cls-8" d="m5.13,7.48c.24-.03.4-.27.63-.3.25.17.49.39.81.37-.08-.09-.15-.19-.23-.28.04,0,.12-.03.15-.04.15-.04.31-.07.46-.1.04.15.08.3.12.44-.07.07-.15.15-.22.22.16.22.3.45.46.67.33-.09.54.23.69.48-.3-.02-.63-.02-.86-.24-.14-.13-.28-.26-.43-.39l-.27.08c-.07-.18-.12-.41-.34-.45.02.09.04.18.06.27-.13.08-.28.11-.43.07.06-.12.12-.24.19-.37-.18-.02-.29.14-.39.27-.02-.06-.04-.13-.06-.19-.07,0-.13-.03-.2-.03-.1.02-.14.16-.24.17-.18-.02-.34-.09-.52-.1-.21.03-.42.12-.63.18-.07-.06-.14-.11-.21-.17.09-.07.3-.12.16-.26.19-.09.35.03.48.16,0-.06-.01-.12-.02-.17.12-.03.26-.03.37-.11.07-.11.1-.24.14-.36.12.06.22.13.34.18Z"/>
  <path class="cls-20" d="m6.86,7.78c.07-.07.15-.15.22-.22.07.22.17.44.35.59.31.24.63.49,1.02.58.34.06.72.03,1.02-.17.26-.23.38-.57.64-.79.25.12.53.18.77.32.25.16.37.44.52.69-.16.03-.32.06-.48.1.06.1.12.21.19.31-.04.06-.09.13-.12.2-.08-.13-.16-.26-.24-.39-.18.04-.34.11-.49.21l.05.24c-.38-.19-.78,0-1.12.19-.1.06-.21.12-.31.18-.21-.12-.42-.24-.65-.33-.09.15-.2.29-.3.42-.04-.11-.08-.22-.12-.34-.04,0-.12.02-.15.02-.02.16-.01.32,0,.48-.1-.01-.21-.03-.31-.04.05-.21.1-.42.15-.64-.05,0-.16.01-.21.02-.18.27-.18.6-.15.91-.07-.06-.14-.12-.21-.18,0-.22.04-.44.06-.66-.23-.1-.33.17-.37.34-.13-.04-.26-.08-.38-.13-.29-.09-.48-.34-.75-.45-.15-.06-.25-.18-.36-.29-.01.04-.04.13-.05.17.11.19.11.43-.11.55-.07,0-.21-.03-.28-.04.23.24.57.28.87.36l-.17.12c-.29-.09-.61-.1-.88-.25,0-.11-.02-.23-.03-.34-.08-.02-.16-.03-.24-.05-.09-.02-.18-.03-.28-.06-.07-.08-.15-.22-.27-.15-.1.09-.18.2-.27.3-.06-.08-.12-.15-.17-.23-.42.05-.39.56-.66.78-.17.12-.16.36-.32.5-.02-.19-.03-.38-.01-.57.09-.34.24-.66.32-1,0-.03.02-.08.03-.11.18,0,.36.03.53-.01.15-.07.09-.28.15-.41.03-.23.23-.36.41-.47.07.06.14.11.21.17.21-.06.41-.15.63-.18.18,0,.35.08.52.1.11,0,.14-.15.24-.17.07,0,.13.02.2.03.02.06.04.13.06.19.11-.12.21-.28.39-.27-.06.12-.12.24-.19.37.15.04.3,0,.43-.07-.02-.09-.04-.18-.06-.27.22.04.27.27.34.45l.27-.08c.15.12.29.26.43.39.23.21.57.22.86.24-.14-.24-.36-.57-.69-.48-.16-.22-.31-.45-.47-.67Z"/>
  <path class="cls-16" d="m10.91,8.87c.16-.03.32-.06.48-.1.05.11.09.22.14.33-.45.45-1.1.56-1.69.7-.24.07-.47-.06-.67-.17.34-.18.74-.38,1.12-.19l-.05-.24c.15-.09.32-.16.49-.21.08.13.16.26.24.39.04-.06.08-.13.12-.2-.06-.1-.12-.21-.18-.31Z"/>
  <path class="cls-4" d="m5.33,13.65c-.06-.07-.11-.15-.17-.22,0,.1,0,.2,0,.3-.26.16-.49-.09-.69-.22.09.09.18.18.26.28.21.03.45.04.59-.15Z"/>
  <path class="cls-4" d="m3.23,11.22c-.16-.18-.43-.1-.64-.13-.23.01-.6-.04-.69.24.42.01.84.02,1.26.04.02-.04.06-.12.07-.15Z"/>
  <path class="cls-4" d="m7.96,10.63c.23.38.69.33,1.07.32-.16-.15-.35-.27-.48-.44-.08-.07-.11-.22-.23-.23-.23.03-.46.06-.7.06h-.26c-.01.14-.01.28-.01.42.06.03.17.09.23.12.08-.15.23-.21.39-.25Z"/>
  <path class="cls-4" d="m1.75,11.08l-.02-.05s-.02.05-.03.07l-.05.06s-.03.03-.03.04c-.11.09-.09.24-.1.37.02.03.06.09.07.13.19.12.15-.31.02-.32.08-.1.17-.19.2-.32l-.07.03Z"/>
  <path class="cls-4" d="m2.39,11.86c.03.39.11.78.24,1.15.26.45.47.93.8,1.34.34.34.68.76,1.2.79.38,0,.81.09,1.14-.13.44-.21.69-.76.52-1.23-.15-.39-.25-.84-.62-1.08-.52-.31-1.31.21-1.2.82-.03-.62.91-1.05,1.27-.48.21.48.51,1.03.27,1.56-.39.59-1.27.65-1.81.25-.25-.19-.52-.38-.69-.66-.15-.27-.29-.55-.45-.81-.28-.45-.29-1-.5-1.47-.05,0-.14-.02-.18-.03Z"/>
  <path class="cls-4" d="m2,11.56s.04.09.06.12c.46.05.92.01,1.38.01-.02-.02-.05-.06-.07-.08-.45-.02-.91-.12-1.36-.05Z"/>
  <path class="cls-4" d="m9,10.21c-.08-.09-.2-.1-.27,0,.09.31.43.46.57.75-.06.13-.21.27-.11.41.04-.28.27-.42.51-.51-.12,0-.25-.02-.37-.03-.1-.21-.18-.44-.33-.63Z"/>
  <path class="cls-4" d="m1.21,11c-.05.11-.1.22-.16.32.05.14.12.27.21.38.03-.01.08-.03.1-.04-.18-.21-.04-.47.08-.68-.08.01-.15.02-.23.02Z"/>
  <path class="cls-4" d="m10.27,10.94c-.15-.15-.36-.19-.57-.21h0v.14c.18.07.38.06.57.07Z"/>
  <path class="cls-4" d="m3.69,10.71c-.18-.28-.24-.6-.13-.92-.08.02-.15.04-.23.06-.17.3-.4.62-.35.99.24,0,.49,0,.71-.12Z"/>
  <path class="cls-4" d="m1.06,10.9c-.15.03-.29.03-.44,0-.09.15-.2.29-.35.37-.15.09-.09.31-.06.46.27.05.56.03.84.05-.07-.16-.16-.31-.2-.48-.02-.18.21-.24.21-.41Z"/>
  <path class="cls-4" d="m4.78,10.6c.02-.1.04-.2.06-.3-.16-.15-.4-.15-.6-.2-.06.27,0,.54.16.76.12-.09.24-.19.37-.26Z"/>
  <path class="cls-4" d="m10.44,11.54c-.42.07-.85.02-1.27.08-.45-.09-.91-.1-1.37-.07,0,.04,0,.13.01.17.45-.03.91.02,1.35-.08.39.09.79.05,1.18.03.2-.02.39.1.58.08.04-.27-.33-.2-.5-.21Z"/>
  <path class="cls-4" d="m9.47,11.19s-.05.09-.07.13c.25.08.52.03.78.06.33.05.69.09,1.01-.07-.11-.07-.21-.17-.33-.2-.46-.03-.93.03-1.38.08Z"/>
  <path class="cls-4" d="m9.93,12.13c-.25-.09-.5-.2-.74-.31.16.15.29.35.49.45.27.06.53-.12.72-.29-.12-.24-.32.09-.47.15Z"/>
  <path class="cls-4" d="m8.18,11.17c-.1.03-.33,0-.3.17.29.02.59.02.88,0,.12,0,.17-.06.16-.18-.24,0-.49-.01-.74,0Z"/>
  <path class="cls-4" d="m11.6,11.1c-.01.1-.02.21-.03.31-.04.03-.12.08-.16.11,0,.09,0,.19-.01.29.36,0,.68-.16,1.03-.23.06-.11.02-.24.02-.36-.29-.03-.56-.13-.84-.12Z"/>
  <path class="cls-4" d="m5.3,10.37l-.07.04c-.06.22-.2.37-.38.49.14.03.27.03.42.05.14-.17.05-.39.04-.58Z"/>
  <path class="cls-4" d="m7.07,10.99c-.08-.2-.16-.42-.33-.56-.37.02-.75,0-1.12.02-.05.18-.11.34-.14.52.53.05,1.06.03,1.59.02Z"/>
  <path class="cls-4" d="m7.52,11.34c.07-.25.33-.32.53-.42-.13-.3-.43-.05-.57.11-.1-.09-.2-.19-.28-.29.27.39.05.99.49,1.27-.06-.21-.14-.42-.18-.64v-.03Z"/>
  <path class="cls-4" d="m4.87,11.34c.26-.08.5.09.76.09.49.01.99.01,1.48,0,0-.06-.01-.17-.02-.23-.66,0-1.33-.1-1.97.09-.18,0-.35-.09-.52-.12-.12-.16-.43-.05-.63-.09.03.09.06.18.08.27.16,0,.32,0,.48,0,.1.11.23,0,.34-.02Z"/>
  <path class="cls-4" d="m4.28,11.6c.04.05.08.11.12.16.15,0,.31,0,.47.02.74,0,1.48.02,2.22,0,.01-.03.04-.07.06-.09-.76-.05-1.52-.06-2.28-.07-.19,0-.39,0-.58,0Z"/>
  <path class="cls-11" d="m7.67,7.87v.05c.36.37.91.6,1.42.45.2-.11.39-.24.49-.45.32-.66.38-1.45.16-2.15-.2-.14-.39-.3-.5-.52-.24-.33-.63-.67-1.05-.51-.44.06-.75.45-.87.85-.16.51-.22,1.1,0,1.6.04.25.09.57.35.69Zm.82-1.26c.09.28-.06.66-.4.67-.15-.11-.37-.21-.33-.43-.06-.41.5-.4.74-.24Z"/>
  <path class="cls-11" d="m11.38,8.23c.2-.21.44-.37.65-.57.36-.53.66-1.23.39-1.86-.09-.42-.58-.57-.96-.52-.5.09-1.05.27-1.32.74,0,.46.08.93-.01,1.38.49.13,1.02.34,1.26.82Zm.36-1.95c.1-.02.2-.05.3-.08.11.17.11.42.05.6-.2.19-.48,0-.56-.21.07-.11.15-.21.21-.31Z"/>
  <path class="cls-4" d="m11.38,8.23c.2-.21.44-.37.65-.57.36-.53.66-1.23.39-1.86-.09-.42-.58-.57-.96-.52-.5.09-1.05.27-1.32.74,0,.46.08.93-.01,1.38.49.13,1.02.34,1.26.82Zm.36-1.95c.1-.02.2-.05.3-.08.11.17.11.42.05.6-.2.19-.48,0-.56-.21.07-.11.15-.21.21-.31Z"/>
  <path class="cls-4" d="m3.16,11.37l.07-.15c-.16-.18-.43-.1-.64-.13-.18.01-.44-.02-.59.1v.15c.39,0,.78.02,1.16.03Z"/>
  <path class="cls-4" d="m3.56,9.79c-.08.02-.15.04-.23.06-.17.3-.4.62-.35.99.24,0,.49,0,.71-.12-.18-.28-.24-.6-.13-.92Z"/>
  <path class="cls-4" d="m3.75,11.07c.13-.18.39-.13.58-.19-.13-.17-.3-.32-.36-.53-.02-.31.13-.6.24-.9.08.02.16.03.24.05.01.11.02.22.03.34.27.15.59.16.88.25.4.13.84.09,1.24,0,0-.09-.01-.19-.01-.28.04-.17.14-.44.37-.34-.02.22-.05.44-.06.66,0,.2.11.37.23.53,0-.12-.01-.24-.02-.35-.03-.31-.03-.64.15-.91.05,0,.16-.01.21-.02-.04.21-.1.43-.15.64.1.01.21.03.31.04.42.05.84-.06,1.22-.26.11-.06.21-.12.31-.18.2.12.43.24.67.17.59-.14,1.24-.25,1.69-.7-.03-.09-.07-.18-.11-.27l-.03-.06c-.15-.24-.27-.53-.52-.69-.24-.14-.52-.2-.77-.32-.27.22-.39.56-.64.79-.3.2-.67.24-1.02.17-.39-.09-.71-.35-1.02-.58-.19-.15-.28-.37-.35-.59-.04-.15-.09-.29-.12-.44-.05-.19-.03-.44-.25-.53h-.03c-.48-.24-1.02-.4-1.56-.37-.47.15-.99.25-1.36.61-.57.5-.89,1.22-1.14,1.92-.01.04-.03.12-.05.17,0,.03-.02.08-.03.11-.09.34-.24.66-.32,1-.02.19,0,.39.01.57,0,.03,0,.11,0,.15.12,0,.23,0,.35,0,.24-.42.39-.9.79-1.2.09-.09.18-.2.27-.3.12-.07.21.07.27.15-.35.39-.23.98.04,1.38-.18.13-.36.27-.5.45.1.32.42.48.72.58-.21-.2-.52-.4-.45-.74Z"/>
  <path class="cls-4" d="m6.73,10.43c-.37.02-.75,0-1.12.02-.05.18-.11.34-.14.52.53.05,1.07.03,1.6.02-.08-.2-.16-.42-.34-.56Z"/>
  <path class="cls-4" d="m5.33,13.65c-.06-.07-.11-.15-.17-.22,0,.1,0,.2,0,.3-.26.16-.49-.09-.69-.22.09.09.18.18.26.28.21.03.45.04.59-.15Z"/>
  <path class="cls-4" d="m3.44,11.69s-.05-.06-.07-.08c-.45-.02-.91-.12-1.36-.05.01.03.04.09.06.12.45.05.92.01,1.38.01Z"/>
  <path class="cls-4" d="m2.39,11.86c.03.39.11.78.24,1.15.26.45.47.93.8,1.34.34.34.68.76,1.2.79.38,0,.81.09,1.14-.13.44-.21.69-.76.52-1.23-.15-.39-.25-.84-.62-1.08-.52-.31-1.31.21-1.2.82-.03-.62.91-1.05,1.27-.48.21.48.51,1.03.27,1.56-.39.59-1.27.65-1.81.25-.25-.19-.52-.38-.69-.66-.15-.27-.29-.55-.45-.81-.28-.45-.29-1-.5-1.47-.05,0-.14-.02-.18-.03Z"/>
  <path class="cls-4" d="m8.18,11.17c-.1.03-.33,0-.3.17.29.02.59.02.88,0,.12,0,.17-.06.16-.18-.24,0-.49-.01-.74,0Z"/>
  <path class="cls-4" d="m8.54,10.51c-.08-.07-.11-.22-.23-.23-.23.03-.46.06-.7.06h-.26c-.01.14-.01.28-.01.42.06.03.17.09.23.12.08-.15.24-.21.39-.25.23.38.69.33,1.07.32-.16-.15-.36-.27-.49-.44Z"/>
  <path class="cls-4" d="m7.67,7.87v.05c.36.37.91.6,1.42.45.2-.11.39-.24.49-.45.32-.66.38-1.45.16-2.15-.2-.14-.39-.3-.5-.52-.24-.33-.63-.67-1.05-.51-.44.06-.75.45-.87.85-.16.51-.22,1.1,0,1.6.04.25.09.57.35.69Zm.82-1.26c.09.28-.06.66-.4.67-.15-.11-.37-.21-.33-.43-.06-.41.5-.4.74-.24Z"/>
  <path class="cls-4" d="m9.47,11.19s-.05.09-.07.13c.25.08.52.03.78.06.33.05.69.09,1.01-.07-.11-.07-.21-.17-.33-.2-.46-.03-.93.03-1.38.08Z"/>
  <path class="cls-4" d="m10.44,11.54c-.42.07-.85.02-1.27.08-.45-.09-.91-.1-1.37-.07,0,.04,0,.13.01.17.45-.03.91.02,1.35-.08.39.09.79.05,1.18.03.2-.02.39.1.58.08.04-.27-.33-.2-.5-.21Z"/>
  <path class="cls-4" d="m9.93,12.13c-.25-.09-.5-.2-.74-.31.16.15.29.35.49.45.27.06.53-.12.72-.29-.12-.24-.32.09-.47.15Z"/>
  <path class="cls-4" d="m11.6,11.1c-.01.1-.02.21-.03.31-.04.03-.12.08-.16.11,0,.09,0,.19-.01.29.36,0,.68-.16,1.03-.23.06-.11.02-.24.02-.36-.29-.03-.56-.13-.84-.12Z"/>
  <path class="cls-4" d="m9,10.21c-.08-.09-.2-.1-.27,0,.09.31.43.46.57.75-.06.13-.21.27-.11.41.04-.28.27-.42.51-.51-.12,0-.25-.02-.37-.03-.1-.21-.18-.44-.33-.63Z"/>
  <path class="cls-4" d="m4.87,11.34c.26-.08.5.09.76.09.49.01.99.01,1.48,0,0-.06-.01-.17-.02-.23-.66,0-1.33-.1-1.97.09-.18,0-.35-.09-.52-.12-.12-.16-.43-.05-.63-.09.03.09.06.18.08.27.16,0,.32,0,.48,0,.1.11.23,0,.34-.02Z"/>
  <path class="cls-4" d="m4.28,11.6c.04.05.08.11.12.16.15,0,.31,0,.47.02.74,0,1.48.02,2.22,0,.01-.03.04-.07.06-.09-.76-.05-1.52-.06-2.28-.07-.19,0-.39,0-.58,0Z"/>
  <path class="cls-4" d="m4.41,10.87c.12-.09.24-.19.37-.26.02-.1.04-.2.06-.3-.16-.15-.4-.15-.6-.2-.05.27,0,.54.16.76Z"/>
  <path class="cls-4" d="m4.85,10.9c.14.03.27.03.42.05.14-.16.05-.39.04-.58l-.07.04c-.06.22-.2.37-.38.49Z"/>
  <path class="cls-4" d="m7.52,11.34c.07-.25.33-.32.53-.42-.13-.3-.43-.05-.57.11-.1-.09-.2-.19-.28-.29.27.39.05.99.49,1.27-.06-.21-.14-.42-.18-.64v-.03Z"/>
  <path class="cls-7" d="m1.21,11c-.05.11-.1.22-.16.32.05.14.12.27.21.38.03-.01.08-.03.1-.04-.18-.21-.04-.47.08-.68-.08.01-.15.02-.23.02Z"/>
  <path class="cls-7" d="m1.75,11.08l-.02-.05s-.02.05-.03.07l-.05.06s-.03.03-.03.04c-.11.09-.09.24-.1.37.02.03.06.09.07.13.19.12.15-.31.02-.32.08-.1.17-.19.2-.32l-.07.03Z"/>
  <path class="cls-12" d="m8.09,7.27c.34,0,.49-.39.4-.67-.24-.16-.79-.17-.74.24-.03.22.18.33.33.43Z"/>
  <path class="cls-12" d="m12.09,6.8c.06-.19.06-.43-.05-.6-.1.03-.2.06-.3.08-.07.1-.14.21-.21.31.08.21.36.41.56.22Z"/>
  <path class="cls-7" d="m11.9,10.94c-.44-.08-.89,0-1.33-.01-.2-.13-.39-.29-.63-.3-.08.03-.15.06-.23.09.2.02.41.07.57.21-.19-.01-.39,0-.57-.07-.24.09-.48.23-.51.51-.1-.15.05-.28.11-.41-.14-.29-.47-.44-.57-.75.07-.1.2-.09.27,0,.15.19.23.41.33.63.12,0,.25.02.37.03v-.14c-.06.03-.12.05-.18.08-.11-.24-.2-.48-.27-.72.15.03.29.09.43.12.67-.1,1.38-.24,1.91-.7.11-.11.31-.21.27-.39-.01-.09-.04-.18-.09-.27-.07-.15-.18-.3-.24-.46.15-.06.3-.11.45-.18.52-.51.78-1.24.84-1.96-.05-.38-.16-.8-.45-1.07-.54-.27-1.17-.18-1.72.01-.25.1-.43.3-.64.46-.17-.04-.27-.23-.38-.36-.21-.36-.51-.7-.9-.86-.33-.01-.72-.1-1,.11-.15.09-.31.18-.41.33-.23.43-.36.91-.4,1.4-.07-.03-.15-.06-.22-.09-.51-.19-1.04-.32-1.59-.3-.38.07-.75.18-1.1.34-.72.37-1.17,1.1-1.44,1.84-.16.33-.28.67-.34,1.02-.06.32-.18.63-.2.96,0,.22.02.45.01.67,0,0-.02.01-.03.02-.23.13-.51.12-.76.17-.19,0-.38-.1-.57-.04h0c-.21.1-.42.15-.63.25-.05.29-.09.69.26.81h.38c.45,0,.89,0,1.33,0h.1c.11.56.21,1.13.51,1.62.35.56.69,1.15,1.22,1.56.51.34,1.14.35,1.72.25.22-.03.37-.2.57-.28.12-.07.3-.09.34-.24.39-.64.09-1.44-.27-2.02-.23-.4-.72-.48-1.14-.47-.25.04-.4.25-.6.38-.22.13-.43.42-.27.67.14.27.32.63.68.61.23-.03.53-.08.63-.31.04-.29-.3-.42-.52-.48.01.14.03.28.04.42-.12-.08-.24-.16-.36-.24.07-.38.49-.37.78-.48.3.46.6,1.05.36,1.6-.28.35-.78.3-1.17.21-.51-.08-.84-.53-1.07-.96-.34-.59-.75-1.22-.68-1.92.24,0,.48-.02.71,0,.23.05.43.25.67.15.52-.14,1.07-.06,1.6-.06.42-.02.84-.04,1.26-.02.15.04.24.23.41.21.2.07.32-.14.47-.23.34-.01.68-.02,1.02,0,.16.28.4.58.74.62.42.02.77-.28.99-.6.3.07.61.16.9.01.62-.26,1.31-.26,1.95-.45v-.18c-.5-.32-1.14-.22-1.71-.37Zm-2.87.01c-.38,0-.84.06-1.07-.32-.15.04-.31.1-.39.25-.06-.03-.17-.09-.23-.12,0-.14,0-.28.01-.42h.26c.24.01.47-.03.7-.06.12.01.15.16.23.23.14.17.33.29.49.44Zm-.27.39c-.3,0-.59,0-.88,0-.03-.18.19-.14.3-.17.25-.02.49,0,.74,0,0,.12-.04.18-.16.18Zm1.37-5.32c.27-.48.82-.66,1.32-.74.38-.05.87.1.96.52.27.63-.03,1.33-.39,1.86-.21.2-.45.36-.65.57-.24-.48-.77-.69-1.26-.81.09-.46.02-.93.01-1.39Zm-2.81-.45c.12-.4.43-.79.87-.85.43-.15.82.19,1.05.51.12.22.3.38.5.52.22.7.16,1.49-.16,2.15-.09.21-.3.34-.49.45-.52.15-1.06-.08-1.43-.45v-.05c-.25-.12-.3-.44-.34-.69-.22-.51-.16-1.09,0-1.6ZM.67,11.78c-.15,0-.3-.01-.46-.04-.03-.15-.09-.36.06-.46.15-.09.26-.22.35-.37.02,0,.03,0,.05,0,.13.02.26.01.39-.01-.01.17-.24.24-.21.41.04.17.13.32.2.48-.13,0-.25,0-.38,0Zm.69-.12s-.08.03-.1.04c-.09-.12-.15-.24-.21-.38.06-.1.11-.21.16-.32.07,0,.15,0,.22-.02-.12.21-.26.46-.08.68Zm.23.03s-.06-.09-.07-.13c.01-.13,0-.27.1-.37,0,0,.02-.03.03-.04l.05-.06s.02-.05.03-.07l.02.05.06-.03c-.02.13-.12.22-.2.32.15,0,.18.43-.01.32Zm.31-.36c.02-.06.06-.11.1-.15.15-.12.41-.09.59-.1.21.03.48-.06.64.13l-.07.15c-.39-.02-.78-.03-1.16-.03-.03,0-.06,0-.1,0Zm1.79-.62c-.22.12-.47.12-.71.12-.05-.37.18-.68.35-.99.08-.02.15-.03.23-.06-.11.32-.05.64.13.92Zm-.62,2.66c.16.27.3.54.45.81.16.28.43.47.69.66.54.4,1.43.34,1.81-.25.24-.52-.06-1.08-.27-1.56-.36-.57-1.3-.14-1.27.48.21.12.44.38.69.22,0-.1,0-.2,0-.3.06.07.11.15.17.22-.15.19-.38.18-.59.15-.09-.09-.18-.19-.26-.28-.11-.61.68-1.13,1.2-.82.37.24.48.69.62,1.08.17.47-.08,1.02-.52,1.23-.34.22-.76.13-1.14.13-.52-.03-.86-.45-1.2-.79-.33-.4-.54-.88-.8-1.34-.13-.37-.21-.76-.24-1.15.05,0,.14.02.19.03.2.48.21,1.03.49,1.48Zm-1.01-1.69s-.04-.09-.06-.12c.45-.07.91.03,1.36.05.02.02.05.06.07.08-.46,0-.92.03-1.38-.01Zm1.41-.45c.14-.18.32-.32.5-.45-.27-.4-.39-.99-.04-1.38-.07-.08-.15-.22-.27-.15-.1.09-.18.2-.27.3-.4.3-.55.79-.79,1.2-.12,0-.23,0-.35,0,0-.03,0-.11,0-.15-.02-.19-.03-.38-.01-.57.09-.34.24-.66.32-1,0-.03.02-.08.03-.11.01-.04.03-.12.05-.17.26-.7.57-1.41,1.14-1.92.36-.36.89-.46,1.36-.61.54-.03,1.07.13,1.56.36h.03c.21.1.2.35.25.54.04.15.08.3.12.44.07.22.17.44.35.59.31.24.63.49,1.02.58.34.06.72.03,1.02-.17.26-.23.38-.57.64-.79.25.12.53.18.77.32.25.16.37.44.52.69l.03.06c.04.09.07.18.11.27-.45.45-1.1.56-1.69.7-.24.07-.47-.06-.67-.17-.1.06-.21.12-.31.18-.37.2-.8.3-1.22.26-.1-.01-.21-.03-.31-.04.05-.21.1-.42.15-.64-.05,0-.16.01-.21.02-.18.27-.18.6-.15.91,0,.12.02.24.02.35-.12-.15-.23-.33-.23-.53,0-.22.04-.44.06-.66-.23-.1-.33.17-.37.34,0,.09,0,.19.01.28-.41.09-.84.14-1.24,0-.29-.09-.61-.1-.88-.25,0-.11-.02-.23-.03-.34-.08-.02-.16-.03-.24-.05-.11.29-.26.58-.24.9.06.21.23.36.36.53-.19.06-.45.01-.58.19-.08.34.24.54.44.75-.29-.12-.61-.27-.71-.59Zm3.6-.24c-.53,0-1.07.03-1.6-.02.03-.18.09-.35.14-.52.37-.01.75,0,1.12-.02.18.14.26.36.34.56Zm-1.8-.05c-.14-.01-.28-.02-.42-.05.18-.12.32-.27.38-.49l.07-.04c.01.19.1.42-.04.58Zm-.42-.64c-.03.1-.05.2-.06.3-.13.07-.25.17-.37.26-.15-.23-.21-.49-.16-.76.2.06.44.05.6.2Zm-.8,1.05c-.03-.09-.05-.18-.08-.27.2.05.51-.07.63.09.18.03.34.11.52.12.64-.19,1.32-.09,1.97-.09,0,.06.01.17.02.23-.49.02-.99.02-1.48,0-.26,0-.5-.17-.76-.09-.11,0-.24.13-.34.03-.17,0-.33-.01-.48-.02Zm3.04.42c-.74.03-1.48.01-2.22,0-.15,0-.31-.01-.47-.02-.04-.05-.08-.11-.12-.16.19,0,.39,0,.58,0,.76,0,1.52.02,2.28.07-.02.03-.04.07-.06.09Zm.11-1.04c.09.11.18.2.28.29.14-.16.44-.41.57-.11-.21.1-.46.17-.53.42v.03c.03.22.11.43.17.64-.44-.28-.22-.87-.49-1.27Zm2.49,1.54c-.21-.1-.33-.3-.49-.45.24.11.48.22.74.31.15-.06.35-.38.47-.15-.19.17-.45.35-.72.29Zm1.25-.53c-.2.03-.38-.1-.58-.08-.39.03-.79.06-1.18-.03-.45.09-.9.05-1.35.08,0-.04,0-.13-.01-.17.46-.04.92-.02,1.37.07.42-.06.85,0,1.27-.08.17.01.54-.06.5.21Zm-.75-.36c-.26-.03-.53.01-.78-.06.02-.03.05-.09.07-.13.46-.04.92-.1,1.38-.08.13.03.23.13.33.2-.31.15-.67.12-1.01.07Zm2.23.19c-.35.06-.67.22-1.03.23,0-.09.01-.19.01-.29.04-.03.12-.08.16-.11,0-.1.02-.21.03-.31.29-.01.56.09.84.12,0,.11.04.24-.02.35Z"/>
  <path class="cls-13" d="m5.09,8.94c.11.11.22.23.36.29.27.11.47.36.75.45-.03.04-.05.09-.08.13-.39-.12-.81-.03-1.2-.15.22-.12.22-.36.11-.55,0-.04.03-.13.05-.17Z"/>
  <path class="cls-14" d="m2.56,10.1c.27-.23.24-.73.66-.78.06.08.12.15.17.23-.4.3-.55.79-.79,1.2-.12,0-.23,0-.35,0,0-.03,0-.11,0-.15.16-.14.15-.37.32-.5Z"/>
  <path class="cls-2" d="m8.21,9.49c.23.09.44.21.65.33-.37.2-.8.3-1.22.26-.02-.16-.03-.32,0-.48.04,0,.12-.01.15-.02.04.11.08.22.12.34.11-.14.21-.28.3-.42Z"/>
  <path class="cls-15" d="m4.66,9.62c.07,0,.21.03.28.04.39.12.81.03,1.2.15.03-.04.05-.09.08-.13.13.05.25.09.38.13,0,.09,0,.19.01.28-.41.09-.84.14-1.24,0l.17-.12c-.3-.08-.64-.12-.87-.36Z"/>
  <path class="cls-18" d="m.62,10.91c.15.02.29.02.44,0-.01.17-.24.24-.21.41.04.17.13.32.2.48-.28-.01-.56,0-.84-.05-.03-.15-.09-.36.06-.46.15-.09.26-.22.35-.37Z"/>
  <path class="cls-1" d="m11.6,11.1c.29-.01.56.09.84.12,0,.12.03.24-.02.36-.35.06-.67.22-1.03.23,0-.09.01-.19.01-.29.04-.03.12-.08.16-.11.01-.11.03-.21.03-.31Z"/>
  <path class="cls-10" d="m3.97,11.08c.2.05.51-.07.63.09l-.14-.02c.02.07.04.14.07.21-.16,0-.32,0-.48,0-.03-.09-.06-.19-.08-.28m-1.97.48c.45-.07.91.03,1.36.05.02.02.05.06.07.08-.46,0-.92.03-1.38-.01-.02-.03-.05-.09-.06-.12Z"/>
  <path class="cls-6" d="m1.9,11.33c.09-.28.45-.23.69-.24.21.03.48-.06.64.13l-.07.15c-.42-.02-.84-.03-1.26-.04m2.97.27c.76,0,1.52.02,2.28.07-.01.03-.04.07-.06.09-.74.03-1.48.01-2.22,0v-.18Z"/>
  <path class="cls-9" d="m4.46,11.16l.14.02c.18.03.34.11.52.12.64-.19,1.32-.09,1.97-.09,0,.06.01.17.02.23-.49.02-.99.02-1.48,0-.26,0-.5-.17-.76-.09-.11,0-.24.13-.34.03-.03-.08-.05-.15-.07-.21m-.18.45c.19,0,.39,0,.58,0v.18c-.15,0-.31-.01-.47-.02-.04-.05-.08-.1-.12-.16Z"/>
  <path class="cls-21" d="m7.88,11.34c-.03-.18.19-.14.3-.17.25-.02.49,0,.74,0,.01.12-.04.18-.16.18-.3,0-.59,0-.88,0m1.59-.15c.46-.04.92-.1,1.38-.08.13.03.23.13.33.2-.31.15-.67.12-1.01.07-.26-.03-.53.01-.78-.06.02-.03.05-.1.07-.13m-1.67.36c.46-.04.92-.02,1.37.07.42-.06.85,0,1.27-.08.18.01.54-.06.5.21-.2.03-.38-.1-.58-.08-.39.03-.79.06-1.18-.03-.45.09-.9.05-1.35.08,0-.04,0-.13-.01-.17Z"/>
  <path class="cls-3" d="m7.51,11.37s0-.02,0-.03v.03Z"/>
</svg>