<?xml version="1.0" encoding="UTF-8"?>
<svg id="Layer_1" width="26px" data-name="Layer 1" xmlns="http://www.w3.org/2000/svg" viewBox="0 0 25.88 20.96">
  <defs>
    <style>
      .cls-1 {
        fill: #fefefe;
      }

      .cls-1, .cls-2, .cls-3, .cls-4, .cls-5, .cls-6, .cls-7, .cls-8, .cls-9, .cls-10, .cls-11, .cls-12, .cls-13, .cls-14, .cls-15, .cls-16, .cls-17, .cls-18, .cls-19 {
        stroke-width: 0px;
      }

      .cls-2 {
        fill: #6cb960;
      }

      .cls-3 {
        fill: #90e59a;
      }

      .cls-4 {
        fill: #ddc377;
      }

      .cls-5 {
        fill: #fff;
      }

      .cls-6 {
        fill: #8fe772;
      }

      .cls-7 {
        fill: #dcc576;
      }

      .cls-8 {
        fill: #e1cb86;
      }

      .cls-9 {
        fill: #231f20;
      }

      .cls-10 {
        fill: #97eb74;
      }

      .cls-11 {
        fill: #84cb71;
      }

      .cls-12 {
        fill: #77c66c;
      }

      .cls-13 {
        fill: #87de71;
      }

      .cls-14 {
        fill: #75d66f;
      }

      .cls-15 {
        fill: #d07b84;
      }

      .cls-16 {
        fill: #5cce74;
      }

      .cls-17 {
        fill: #eaeaea;
      }

      .cls-18 {
        fill: #a9f37e;
      }

      .cls-19 {
        fill: #f5d776;
      }
    </style>
  </defs>
  <path class="cls-18" d="m12.97,6.43c.14-.14.4-.39.55-.53.14.42.32.93.67,1.21.59.45,1.17.91,1.91,1.08.65.12,1.3.04,1.86-.33.49-.44.77-1.1,1.27-1.52.47.24,1.08.38,1.54.65.47.3.68.91.97,1.37-.31.06-.61.11-.92.18.11.2.2.38.32.57-.08.12-.2.31-.28.44-.16-.24-.34-.51-.48-.75-.33.08-.55.2-.84.38.03.16.06.34.09.5-.72-.37-1.53-.07-2.18.29-.2.11-.4.28-.59.38-.41-.22-.8-.44-1.23-.61-.17.28-.4.55-.61.81-.07-.21-.16-.42-.23-.64-.07,0-.17.02-.24.03-.03.3-.02.6.02.9-.2-.02-.48-.06-.68-.09.09-.41.17-.78.25-1.2-.1,0-.2.01-.29.02-.33.51-.33,1.16-.26,1.76-.14-.11-.38-.28-.51-.39.02-.42.07-.81.11-1.23-.44-.19-.53.32-.61.65-.25-.08-.55-.17-.79-.26-.55-.17-.91-.65-1.44-.86-.28-.11-.41-.28-.62-.49-.02.08-.06.15-.07.23.21.36.21.87-.2,1.09-.13-.02-.34-.07-.48-.09.44.45,1.08.48,1.66.64-.08.06-.34.24-.42.3-.55-.18-1.21-.21-1.74-.5-.02-.21-.03-.42-.04-.63-.16-.03-.29-.04-.44-.07-.18-.03-.4-.07-.58-.11-.13-.16-.18-.43-.42-.29-.19.17-.37.38-.55.57-.11-.15-.23-.31-.34-.46-.8.1-.68,1.04-1.19,1.47-.33.24-.37.7-.67.96-.04-.37-.08-.77-.04-1.14.16-.64.44-1.25.61-1.9.02-.05.06-.18.08-.23.33.02.71.06,1.04-.03.29-.14.15-.5.26-.75.05-.44.46-.73.81-.92.13.11.25.22.38.32.4-.12.79-.29,1.19-.35.34.02.65.15.98.18.2,0,.26-.27.46-.31.13,0,.28.04.41.05.04.12.07.22.1.34.2-.24.42-.51.77-.48-.12.24-.22.47-.34.7.29.08.47.02.73-.12-.04-.17-.06-.36-.09-.53.42.07.55.51.69.85.17-.05.35-.09.52-.14.28.24.57.51.83.75.44.41.98.4,1.54.43-.27-.46-.63-1.01-1.26-.83-.3-.42-.62-.91-.93-1.32Z"/>
  <path class="cls-14" d="m18.42,12.39c.02-.08-.03-.36.02-.36.55-.07.94.15,1.23.43-.36-.02-.91.05-1.26-.07"/>
  <path class="cls-14" d="m10.72,4.29c.27.16.6.12.89.08.11.09.2.19.3.28.15-.11.31-.22.46-.33.11.14.39.24.4.43-.11.2-.24.46-.37.65-.07.02-.23.04-.29.06.15.18.33.37.48.55-.62.03-1.17-.37-1.64-.68-.43.06-.75.51-1.2.56-.22-.1-.41-.2-.61-.33-.07.24-.12.45-.26.65-.2.14-.46.14-.69.2,0,.11.02.27.03.38-.25-.25-.53-.53-.89-.37.26.27-.18.35-.35.47-.35.2-.73.45-.77.89-.1.25,0,.64-.28.78-.33.09-.77.04-1.1.03.03-.08.07-.27.1-.35.2.06.42.1.6.16-.03-.26-.07-.51-.05-.77.2-.47.61-.83.86-1.28.24-.41.33-.97.85-1.13.19.34.1.66-.06.98.15-.12.17-.21.33-.33-.15-.63.29-1.37.99-1.45-.07.16-.17.39-.24.55.32.18.51-.1.56-.42.16.22.33.44.5.65.08-.11.11-.15.2-.27-.07-.15-.15-.36-.22-.51.37.24.79.47,1.18.68.11-.25.23-.54.29-.84Zm-3.41,5.2c.18.03.66.14.84.19-.2.55-.52,1.03-.49,1.63.11.39.41.76.66,1.07-.36.11-.88.01-1.12.35-.15.65.48,1.07.86,1.47-.55-.2-1.35-.58-1.55-1.19.27-.33.62-.61.97-.87-.5-.77-.84-1.91-.18-2.65Zm5.77,1.37c.13.11.36.3.49.41.02.22.02.55.03.77-.23-.29-.51-.79-.52-1.18Zm5.46,1.42s0,0,0,0c0,.02,0,0,0,0-.42.19-.99.61-1.04,1.08-.2-.28-.16-.49-.05-.74-.26-.55-.75-1.02-.93-1.62.14-.2.55-.16.7.01.28.36.37.77.55,1.18.18.01.57.05.77.08h0s0,0,0,0Zm0,0s0,0,0,0c0,0,0,0,0,0,0,0,0,0,0,0Zm-8.65-.91l.24-.11c.03.37.23.98-.04,1.29-.27-.02-.72-.1-.99-.15.35-.23.68-.62.79-1.04Zm4.39,1.14c.26-.3.89-.68,1.12-.11-.39.19-.93.34-1.06.81,0,.02.02.11.02.13.06.42.7,1.36.31,1.2-1.08-.46-.57-1.84-1.06-2.59.16.19.47.38.66.55Zm3.11,1.56c.46.2,1.03.45,1.52.61.28-.11.76-.73.99-.28-.36.33-.95.8-1.45.69-.39-.19-.75-.72-1.05-1.02Zm-12.91.08c.09.02.4.04.49.05.39.91.41,1.99.95,2.84.31.51.54,1.04.84,1.56.31.53.86.86,1.34,1.22,1.03.76,2.52.65,3.24-.46.46-.99-.09-1.9-.48-2.81-.66-1.03-2.25-.3-2.34.8,0,0-.02-.01-.03-.02-.11-1.08.68-1.87,1.78-1.79.7.05,1.54.96,1.82,1.71.33.89.02,2.62-.82,3.01-.65.42-1.75.33-2.48.33-.99-.05-1.68-.94-2.32-1.58-.63-.77-1.06-1.7-1.55-2.56-.26-.69-.39-1.55-.45-2.3Zm4.04,3.34s-.01-.08-.02-.12c0,0,.01.01.02.02,0,.03,0,.07,0,.1Zm1.27-.37c.11.13.3.35.42.49-.28.36-.81.42-1.21.37-.14-.15-.32-.4-.47-.59,0-.01,0-.03,0-.04.37.25.8.66,1.25.38-.02-.2.02-.41.02-.6Zm-1.29.21s0,.03,0,.04c-.02-.03-.05-.06-.07-.08.02.01.04.03.07.04Z"/>
  <path class="cls-16" d="m8.7,4.42c.2-.15.33-.35.56-.44.51-.05,1.03.11,1.48.31-.06.29-.18.61-.31.87-.39-.2-.78-.42-1.15-.66.07.15.15.29.22.44-.08.11-.17.22-.25.33-.16-.21-.33-.42-.48-.64-.06.32-.29.55-.62.37.07-.17.18-.39.25-.55.1-.13.19-.25.3-.37,0,.07,0,.25,0,.33Z"/>
  <path class="cls-3" d="m7.11,4.58c.69-.69,1.71-.89,2.62-1.18,1.04-.06,2.2.25,3.14.68.41.16.33.74.42,1.11-.29.07-.64.11-.93.18.13-.2.25-.4.37-.6,0-.2-.24-.27-.35-.41l-.46.32c-.11-.09-.21-.18-.32-.27-.28.04-.59.08-.86-.07-.46-.2-.95-.36-1.45-.31-.23.1-.41.28-.6.43,0-.08,0-.25,0-.33-.11.12-.21.24-.31.38-.7.07-1.03.8-.87,1.43-.15.11-.3.24-.45.35.16-.32.3-.67.11-1.01-.52.15-.56.72-.8,1.13-.24.45-.66.79-.86,1.26-.02.26.03.51.05.77-.2-.06-.44-.12-.63-.17.49-1.33,1.08-2.74,2.17-3.69Z"/>
  <path class="cls-6" d="m9.76,5.85c.45-.05.76-.51,1.19-.58.48.32.93.73,1.54.7-.15-.18-.29-.36-.44-.53.07-.02.22-.06.29-.07.29-.07.65-.14.95-.21.07.28.13.53.22.81-.14.14-.33.33-.47.47.3.42.58.86.88,1.27.63-.17,1.03.43,1.3.9-.56-.03-1.2-.04-1.64-.45-.27-.25-.53-.5-.82-.73-.17.05-.34.1-.51.15-.14-.33-.22-.77-.64-.86.03.17.07.33.11.51-.25.15-.53.21-.82.13.11-.24.24-.46.36-.7-.35-.03-.55.27-.75.51-.04-.12-.08-.25-.11-.37-.13-.02-.25-.05-.38-.06-.19.04-.26.31-.46.32-.33-.03-.65-.17-.99-.19-.41.06-.79.24-1.19.35-.13-.11-.27-.21-.4-.32.18-.13.58-.23.31-.5.37-.16.67.06.92.31,0-.11-.02-.22-.03-.33.24-.06.49-.07.7-.2.14-.2.19-.46.26-.69.22.12.42.25.64.35Z"/>
  <path class="cls-13" d="m20.75,8.51c.31-.06.7-.15,1.01-.21.1.21.24.49.32.7-.85.85-2.44,1.18-3.56,1.44-.46.14-.7-.26-1.08-.48.64-.35,1.41-.73,2.13-.36-.03-.15-.06-.31-.1-.46.29-.18.61-.31.94-.39.15.25.3.49.45.73.07-.12.15-.25.24-.38-.11-.2-.23-.4-.34-.6Z"/>
  <path class="cls-10" d="m9.69,8.63c.21.2.42.43.69.55.52.2.91.7,1.46.88-.05.08-.1.18-.15.26-.74-.24-1.58-.06-2.32-.29.42-.22.44-.71.23-1.07.02-.08.07-.24.09-.33Z"/>
  <path class="cls-11" d="m4.86,10.85c.51-.43.45-1.39,1.25-1.49.11.15.25.33.35.47-.76.58-1.06,1.51-1.51,2.3-.22,0-.5,0-.72,0,0-.06,0-.25,0-.32.3-.26.3-.72.63-.95Z"/>
  <path class="cls-2" d="m15.6,9.68c.43.17.85.41,1.26.63-.7.37-1.53.59-2.33.5-.04-.3-.06-.62-.02-.92.07,0,.22-.03.29-.04.07.21.15.42.22.64.2-.26.4-.53.58-.81Z"/>
  <path class="cls-12" d="m8.86,9.93c.13.02.39.05.53.07.74.24,1.53.06,2.27.29.05-.08.1-.17.15-.25.25.09.58.2.83.28,0,.18-.03.39-.02.57-.77.18-1.76.27-2.53.02.08-.06.35-.24.43-.3-.58-.16-1.22-.24-1.66-.69Z"/>
  <path class="cls-17" d="m13.76,5.3c-.42-.96-.32-2.07,0-3.05.23-.77.98-1.66,1.81-1.78.81-.29,1.64.36,2.09.98.22.41.58.72.95.99.42,1.34.37,3-.24,4.26-.18.4-.69.79-1.07,1-.98.28-2.03-.13-2.73-.83l-.23-.26c-.49-.23-.5-.82-.58-1.3Zm5.23.59c.18-.87.12-2,.11-2.88.51-.9,1.8-1.33,2.76-1.49.72-.09,1.74.35,1.92,1.15.52,1.21-.06,2.62-.74,3.62-.4.37-1.02.84-1.39,1.24-.46-.9-1.71-1.39-2.64-1.64Z"/>
  <path class="cls-9" d="m14.75,4.65c-.11-.77.95-.75,1.4-.45.17.53-.11,1.27-.77,1.27-.29-.2-.7-.4-.64-.82Zm7.16-.5c.14-.2.27-.39.41-.59.2-.04.38-.09.57-.15.21.33.2.79.09,1.15-.38.37-.91,0-1.07-.42Z"/>
  <path class="cls-15" d="m1.17,12.37c.28.04.59.04.86-.02-.02.32-.46.47-.4.8.07.32.26.62.39.92-.53-.02-1.15.02-1.67-.08-.05-.28-.15-.73.14-.91.29-.17.51-.42.68-.71Z"/>
  <path class="cls-5" d="m2.78,12.5c-.23.39-.51.93-.16,1.34-.04.02-.18.08-.23.1-.16-.22-.33-.51-.42-.77.11-.2.23-.43.32-.64.14,0,.34-.01.49-.04Zm.67.13c-.05.25-.15.44-.31.63.25.02.25.87-.12.65-.03-.06-.13-.2-.16-.26.02-.25-.04-.55.17-.73,0-.02.06-.07.08-.08l.1-.11s.05-.12.06-.16l.05.1.13-.06Z"/>
  <path class="cls-8" d="m7.5,12.65c.38.09,1.27-.05,1.5.26-.07,0-.39,0-.46,0,.04.13.08.26.13.39-.3,0-.7-.02-1-.02-.05-.18-.12-.46-.17-.63Zm-3.76.95c.86-.14,1.83.04,2.69.07.03.04.14.18.18.22-.87,0-1.88.08-2.74-.01-.03-.06-.11-.23-.13-.29Z"/>
  <path class="cls-4" d="m3.55,13.23c.16-.54.74-.52,1.19-.55.41.06,1.15-.09,1.46.26-.03.07-.14.31-.17.39-.81-.04-1.67-.07-2.47-.1Zm5.71.45c1.44.02,2.93.04,4.38.14-.02.05-.11.19-.13.23-1.41.05-2.83.03-4.24.02v-.38Z"/>
  <path class="cls-7" d="m8.48,12.86c.07,0,.2.02.26.03.33.06.63.14.97.15,1.21-.36,2.62-.17,3.87-.17,0,.11-.02.46-.01.56-.94.03-1.95.04-2.89.02-.49,0-.92-.33-1.41-.18-.21.02-.45.22-.63.03-.06-.15-.11-.31-.15-.44Zm-.4.82c.37,0,.8,0,1.18,0v.4c-.29,0-.63-.02-.92-.03-.07-.1-.18-.26-.26-.37Z"/>
  <path class="cls-19" d="m14.96,13.22c-.06-.33.24-.33.44-.38.47-.03,1.12,0,1.6,0,.02.24-.07.4-.3.39-.56.02-1.18.01-1.74-.02Zm3.02-.35c.87-.07,1.81-.17,2.7-.12.24.05.46.27.66.4-.6.29-1.33.26-1.98.17-.49-.06-1.05.03-1.53-.12.03-.06.12-.27.15-.33Zm-3.16.69c.87-.07,1.77-.06,2.63.11.8-.11,1.73-.02,2.53-.16.33.02.95-.03.87.49-.37.05-.78-.17-1.16-.14-.75.05-1.5.11-2.24-.06-.85.18-1.75.09-2.6.14,0-.08-.01-.31-.02-.39Z"/>
  <path class="cls-1" d="m21.89,12.67c.55-.03,1.3.1,1.84.15,0,.22.08.7-.03.91-.66.12-1.53.51-2.21.52.02-.18.01-.6.01-.78.07-.05.32-.17.4-.21.03-.2-.03-.4-.02-.59Z"/>
  <path class="cls-5" d="m25.88,13.15v.35c-1.21.35-2.52.35-3.7.85-.55.28-1.15.11-1.71-.02-.42.62-1.1,1.18-1.89,1.15-.65-.08-1.11-.65-1.41-1.18-.64-.04-1.29-.03-1.93,0-.29.16-.51.56-.89.43-.33.02-.5-.33-.78-.41-.8-.05-1.61,0-2.4.03-1.02.02-2.05-.15-3.05.12-.46.18-.85-.2-1.28-.29-.44-.05-.9-.02-1.35,0-.14,1.35.64,2.54,1.29,3.66.42.81,1.07,1.67,2.03,1.82.73.17,1.69.25,2.22-.41.46-1.04-.13-2.17-.69-3.04-.55.22-1.35.2-1.49.92.23.16.46.3.68.46-.03-.27-.05-.53-.07-.8.43.1,1.08.36.99.91-.19.45-.76.55-1.19.6-.68.04-1.02-.64-1.29-1.16-.32-.49.09-1.03.5-1.28.38-.25.68-.64,1.15-.72.8-.03,1.74.12,2.18.89.69,1.12,1.26,2.62.51,3.85-.08.29-.42.33-.65.46-.37.16-.67.48-1.08.53-1.1.2-2.32.17-3.28-.47-1-.78-1.65-1.9-2.32-2.97-.56-.94-.77-2.03-.97-3.09h-.2c-.85,0-1.69-.02-2.53-.02h-.72c-.67-.21-.58-.98-.49-1.53.39-.18.81-.29,1.2-.47h0c.37-.11.72.07,1.08.08.49-.08,1.01-.07,1.45-.32.02,0,.04-.03.06-.03,0-.42-.02-.85-.02-1.27.03-.63.27-1.22.38-1.83.12-.68.34-1.33.65-1.95.5-1.41,1.37-2.8,2.73-3.5.67-.3,1.37-.51,2.09-.65,1.04-.03,2.05.21,3.02.57.14.06.28.11.42.16.07-.92.33-1.83.77-2.66.2-.28.5-.45.78-.63.55-.41,1.27-.24,1.91-.21.76.3,1.31.94,1.72,1.63.21.24.41.61.73.68.4-.31.74-.69,1.21-.88,1.04-.38,2.25-.54,3.28-.02.56.51.77,1.31.86,2.04-.11,1.37-.6,2.76-1.6,3.73-.28.13-.57.24-.86.34.12.31.32.58.46.87.08.15.14.33.16.51.07.35-.31.54-.52.75-.99.88-2.36,1.13-3.63,1.33-.28-.06-.55-.16-.82-.22.15.46.32.92.52,1.37.11-.06.24-.11.35-.16v.27c-.23-.02-.46-.03-.7-.05-.19-.41-.34-.83-.62-1.19-.15-.17-.38-.19-.52,0,.19.59.82.87,1.08,1.42-.11.25-.4.51-.2.78.06-.54.51-.8.97-.97.34.13.72.11,1.08.14-.29-.28-.69-.37-1.08-.41.15-.06.29-.11.44-.18.47.03.83.33,1.21.58.84.02,1.69-.12,2.53.03,1.1.28,2.31.1,3.26.7Zm-17.93.98c-.38-.4-.98-.77-.83-1.43.24-.33.74-.25,1.1-.36-.25-.32-.57-.61-.68-1-.03-.6.25-1.16.46-1.7.15.03.3.06.46.09.02.21.04.43.06.64.52.29,1.12.3,1.68.48.77.25,1.59.16,2.36-.02,0-.18-.02-.36-.02-.54.08-.33.26-.83.7-.64-.03.42-.09.84-.11,1.26,0,.38.2.71.44,1,0-.22-.02-.45-.04-.67-.06-.6-.05-1.21.29-1.73.1,0,.3-.02.4-.03-.08.42-.19.82-.28,1.22.2.03.4.05.6.07.8.09,1.61-.11,2.32-.49.2-.11.4-.23.59-.33.38.22.82.47,1.28.33,1.12-.26,2.36-.48,3.21-1.33-.07-.17-.14-.34-.21-.51-.02-.04-.03-.08-.05-.12-.28-.46-.51-1-.99-1.3-.46-.27-.99-.37-1.46-.61-.51.42-.73,1.07-1.22,1.51-.56.37-1.28.45-1.93.33-.73-.17-1.34-.66-1.93-1.11-.35-.28-.53-.7-.67-1.12-.09-.28-.16-.56-.24-.84-.09-.37-.07-.85-.47-1.01-.02,0-.03-.02-.05-.03-.92-.42-1.94-.73-2.96-.68-.91.29-1.9.47-2.59,1.16-1.08.96-1.68,2.32-2.17,3.65-.02.08-.06.24-.09.32-.02.06-.04.16-.06.21-.16.65-.45,1.25-.61,1.9-.04.37-.02.73.02,1.09,0,.07.02.21.02.28.22,0,.44,0,.66.02.46-.79.75-1.71,1.51-2.29.18-.19.33-.39.52-.56.24-.14.38.13.51.29-.66.73-.43,1.86.07,2.62-.35.26-.68.53-.95.86.19.61.81.91,1.35,1.13Zm9.01-1.26c-.47,0-.94-.02-1.41,0-.2.05-.63-.02-.57.32.55.03,1.11.03,1.67.02.23,0,.33-.11.31-.34Zm2.27-7.13c.93.23,1.94.64,2.4,1.55.37-.4.83-.7,1.23-1.08.68-1.01,1.26-2.34.74-3.54-.19-.8-1.11-1.08-1.83-.99-.95.16-2,.5-2.51,1.41.02.87.15,1.76-.02,2.64Zm-5.32-.44c.09.47.17,1.08.67,1.3l-.02.1c.7.7,1.74,1.13,2.72.85.37-.2.75-.45.93-.86.61-1.26.72-2.76.3-4.09-.37-.27-.72-.57-.95-.99-.44-.62-1.19-1.27-2-.98-.83.11-1.42.85-1.65,1.61-.31.98-.42,2.09,0,3.05ZM1.99,14.06c-.13-.3-.31-.59-.38-.9-.06-.33.38-.47.4-.78-.24.05-.5.06-.74.02-.03,0-.06,0-.09,0-.17.29-.38.55-.67.71-.29.19-.16.6-.11.87.29.05.58.07.87.07.24,0,.48,0,.72.02Zm.73-1.52c-.14.02-.28.02-.42.03-.09.2-.19.42-.3.61.1.26.23.5.39.73.04-.02.14-.06.19-.08-.35-.42-.07-.9.15-1.29Zm.32.73c.15-.19.33-.37.37-.61l-.11.05-.03-.09s-.03.1-.05.13l-.09.11s-.04.06-.06.07c-.21.18-.17.46-.2.7.03.06.11.19.14.24.37.22.3-.59.03-.6Zm.76-.07c.73.02,1.48.03,2.21.06.03-.07.1-.22.13-.29-.31-.35-.81-.19-1.22-.24-.34.02-.83-.03-1.12.19-.08.07-.15.16-.19.28.07,0,.12,0,.19,0Zm2.97-2.94c-.15.04-.29.07-.44.11-.33.58-.77,1.17-.67,1.88.46,0,.93,0,1.35-.23-.33-.53-.45-1.15-.25-1.75Zm-1.87,4c-.1,0-.27-.03-.36-.05.06.74.2,1.49.46,2.19.49.86.9,1.78,1.52,2.54.64.64,1.29,1.45,2.28,1.5.73,0,1.52.16,2.18-.25.84-.39,1.32-1.44.99-2.33-.28-.74-.47-1.61-1.18-2.06-.99-.6-2.49.39-2.28,1.56.16.18.33.36.5.54.4.06.85.07,1.13-.28-.11-.14-.2-.29-.32-.42,0,.2,0,.39.02.58-.49.3-.93-.18-1.32-.42-.05-1.17,1.74-1.99,2.42-.91.4.91.98,1.96.51,2.96-.72,1.12-2.42,1.23-3.45.47-.48-.37-.99-.73-1.3-1.26-.29-.51-.55-1.04-.86-1.55-.53-.86-.55-1.9-.94-2.81Zm1.63-.38s-.11-.11-.14-.16c-.86-.03-1.73-.24-2.59-.1.03.06.08.17.11.23.86.09,1.74.02,2.62.02Zm9.71-2.24c-.15-.14-.2-.42-.43-.44-.44.06-.88.13-1.33.11h-.49c-.03.27-.03.54-.03.81.11.06.33.18.43.24.15-.29.45-.4.74-.48.44.72,1.3.63,2.03.61-.3-.29-.67-.51-.93-.84Zm-3.45-.16c-.71.03-1.42,0-2.13.03-.09.33-.2.66-.27.99,1.01.09,2.03.06,3.04.04-.15-.38-.3-.81-.64-1.07Zm-2.71-.13l-.14.07c-.11.42-.37.7-.72.94.26.05.52.06.79.09.27-.31.1-.73.07-1.1Zm-2.01-.51c-.1.51.02,1.02.31,1.45.22-.17.45-.36.7-.5.03-.2.07-.38.12-.57-.3-.28-.76-.27-1.13-.38Zm.54,2.42c.19.2.43-.03.64-.05.49-.15.95.18,1.44.18.94.02,1.87.02,2.81-.02,0-.11-.03-.33-.03-.43-1.25,0-2.54-.2-3.75.16-.34,0-.66-.16-.99-.22-.23-.31-.82-.09-1.2-.18.06.17.11.35.15.52.3,0,.6.02.92.03Zm4.96.58c-1.44-.1-2.89-.12-4.33-.14-.37,0-.74,0-1.11,0,.07.1.15.2.22.3.29,0,.59.02.89.03,1.41,0,2.81.03,4.22-.02.03-.04.07-.13.11-.18Zm1.04.62c-.12-.4-.28-.8-.33-1.21v-.06c.14-.47.63-.61,1.02-.8-.24-.57-.81-.09-1.08.21-.2-.17-.37-.35-.54-.55.51.75.09,1.88.93,2.41Zm5.18-.02c-.23-.45-.62.16-.9.28-.49-.16-.95-.38-1.41-.59.3.29.55.67.94.86.51.11,1-.22,1.37-.55Zm.07-.86c-.8.14-1.61.04-2.41.15-.86-.17-1.73-.2-2.6-.13,0,.08.02.24.03.33.86-.05,1.73.03,2.58-.15.74.16,1.5.1,2.25.05.38-.03.73.2,1.11.16.07-.52-.62-.38-.94-.4Zm1.43-.43c-.2-.13-.39-.33-.64-.37-.89-.05-1.76.07-2.63.15-.03.06-.1.19-.13.24.48.15.99.06,1.48.12.64.08,1.32.15,1.92-.14Zm2.36-.16c-.54-.06-1.05-.26-1.6-.24-.02.2-.04.39-.06.59-.08.05-.24.16-.31.2,0,.18,0,.37-.02.55.68-.02,1.3-.31,1.96-.43.11-.21.04-.46.03-.67Z"/>
</svg>