<?xml version="1.0" encoding="utf-8"?>
<!-- Generator: Adobe Illustrator 19.0.0, SVG Export Plug-In . SVG Version: 6.00 Build 0)  -->
<svg version="1.1" id="layer" width="26px" xmlns="http://www.w3.org/2000/svg" xmlns:xlink="http://www.w3.org/1999/xlink" x="0px" y="0px"
	 viewBox="-153 -46 652 652" style="enable-background:new -153 -46 652 652;" xml:space="preserve">
<style type="text/css">
	.st0{fill:#143C67;}
</style>
<g>
	<path class="st0" d="M164.7,310.8h-26.6c-13.6,0-24.7-11-24.7-24.7v-54.4c0-13.6,11-24.7,24.7-24.7H223c13.6,0,24.7,11,24.7,24.7
		v54.4c0,13.6-11,24.7-24.7,24.7h-37.5l57.1,90.1h58.5l-32.7-51.6c16.9-10.9,28.6-29.4,28.6-50.8v-79.2c0-34-29.8-61-63.3-61H127.4
		c-33.6,0-63.3,27-63.3,61v79.2c0,34.1,29.8,61,63.3,61h68.2L164.7,310.8z"/>
</g>
<g>
	<path class="st0" d="M474,359.6h-86.3c-33.5,0-63.3-27-63.3-61V158.3h49.4v127.8c0,13.6,11,24.7,24.7,24.7H474V359.6z"/>
	<path class="st0" d="M-63.6,207.1H36.9v-48.8h-108c-30.3,0-55,24.9-54.9,57.8v9.4c-0.1,33,24.6,57.8,54.9,57.8h51.7
		c7.8,0,14.1,5.9,14.1,13.6v0.2h0.1c0,7.7-6.3,13.6-14.1,13.6h-97.2v48.8h104.7c30.3,0,55-24.9,54.9-57.8v-9.4
		c0.1-33-24.7-57.8-55-57.8h-51.7c-7.8,0-14.1-5.9-14.1-13.6v-0.2C-77.7,213-71.4,207.1-63.6,207.1"/>
</g>
</svg>
