<?xml version="1.0" encoding="UTF-8"?>
<svg id="Layer_1" data-name="Layer 1" xmlns="http://www.w3.org/2000/svg" viewBox="0 0 1440 400">
  <defs>
    <style>
      .cls-1 {
        fill: #888c93;
      }

      .cls-1, .cls-2, .cls-3, .cls-4 {
        stroke-width: 0px;
      }

      .cls-2 {
        fill: #fff;
      }

      .cls-3 {
        fill: #e8c98e;
      }

      .cls-4 {
        fill: #121827;
      }
    </style>
  </defs>
  <rect class="cls-4" width="1440" height="400"/>
  <g>
    <g>
      <path class="cls-1" d="m244.5,242c-4.42,0-8,3.58-8,8,0,3.73,2.55,6.85,6,7.74v142.26h4v-142.26c3.45-.89,6-4.01,6-7.74,0-4.42-3.58-8-8-8Z"/>
      <path class="cls-1" d="m178,350c-4.42,0-8,3.58-8,8,0,3.73,2.55,6.85,6,7.74v34.26h4v-34.26c3.45-.89,6-4.01,6-7.74,0-4.42-3.58-8-8-8Z"/>
      <path class="cls-1" d="m297,242c-4.42,0-8,3.58-8,8,0,3.74,2.57,6.88,6.05,7.75v61.25h-36.05c-1.1,0-2,.9-2,2v79h4v-77h36.05c1.1,0,2-.9,2-2v-63.27c3.42-.91,5.95-4.02,5.95-7.73,0-4.42-3.58-8-8-8Z"/>
      <path class="cls-1" d="m154.17,285.63c-3.7,0-6.79,2.77-7.61,6.48h-17.21v-22.73c3.82-.82,6.65-3.9,6.65-7.57,0-4.32-3.89-7.81-8.7-7.81s-8.69,3.49-8.69,7.81c0,3.7,2.88,6.8,6.74,7.6v22.7h-38.67v-38.11c0-1.1-.9-2-2-2H.5v4h82.18v38.11c0,1.11.89,2,2,2h40.67v32.97h-39.35c-1.1,0-2,.9-2,2v47.52h-18.5v-40.6c0-1.1-.9-2-2-2H0v4h61.5v40.6c0,1.1.9,2,2,2h20.5v17.4h4v-17.4h38.72c.83,3.95,3.99,6.9,7.78,6.9,4.42,0,8-4.01,8-8.96s-3.58-8.95-8-8.95c-3.82,0-7.01,3-7.8,7.01h-38.7v-45.52h39.35c1.11,0,2-.89,2-2v-34.97h17.23c.85,3.67,3.92,6.39,7.59,6.39,4.32,0,7.83-3.78,7.83-8.43s-3.51-8.44-7.83-8.44Z"/>
      <path class="cls-1" d="m230,319h-36.05v-61.25c3.48-.87,6.05-4.01,6.05-7.75,0-4.42-3.58-8-8-8s-8,3.58-8,8c0,3.71,2.53,6.82,5.95,7.73v63.27c0,1.1.9,2,2,2h36.05v77h4v-79c0-1.1-.9-2-2-2Z"/>
      <path class="cls-1" d="m1362.5,241.74c3.45-.89,6-4.01,6-7.74,0-4.42-3.58-8-8-8s-8,3.58-8,8c0,3.73,2.55,6.85,6,7.74v76.76h-10.5v-9.66c0-1.1-.9-2-2-2h-36.05v-65.09c3.47-.87,6.05-4.01,6.05-7.75,0-4.42-3.58-8-8-8s-8,3.58-8,8c0,3.71,2.53,6.82,5.95,7.73v67.11c0,1.1.9,2,2,2h36.05v7.66h-50.41v-36.05c0-1.1-.9-2-2-2h-58.37c-.91-3.42-4.02-5.95-7.73-5.95-4.42,0-8,3.58-8,8s3.58,8,8,8c3.74,0,6.88-2.57,7.75-6.05h56.34v36.05c0,1.1.9,2,2,2h52.41v77.5h4v-77.5h10.5v77.5h4v-77.5h8.5v-4h-8.5v-76.76Z"/>
      <path class="cls-1" d="m1413,226c-4.42,0-8,3.58-8,8,0,3.74,2.57,6.88,6.05,7.75v65.09h-36.05c-1.1,0-2,.9-2,2v91.16h4v-89.16h36.05c1.1,0,2-.9,2-2v-67.11c3.42-.91,5.95-4.02,5.95-7.73,0-4.42-3.58-8-8-8Z"/>
      <path class="cls-1" d="m1053,251c0,3.71-2.53,6.82-5.95,7.73v67.54c0,1.1-.9,2-2,2h-39.05v71.73h-4v-73.73c0-1.11.9-2,2-2h39.05v-18.27h-60v39.69c0,1.1-.9,2-2,2h-36.05v52.31h-4v-54.31c0-1.1.9-2,2-2h36.05v-57.8c-3.48-.82-6.05-3.79-6.05-7.33,0-4.17,3.58-7.56,8-7.56s8,3.39,8,7.56c0,3.51-2.53,6.45-5.95,7.31v16.13h60v-43.25c-3.48-.87-6.05-4.01-6.05-7.75,0-4.42,3.58-8,8-8s8,3.58,8,8Z"/>
      <path class="cls-1" d="m1154.75,326.58c0,3.73-2.55,6.85-6,7.74v65.68h-4v-65.68c-3.45-.89-6-4.01-6-7.74,0-4.42,3.58-8,8-8s8,3.58,8,8Z"/>
      <path class="cls-1" d="m1186,326.58c0,3.73-2.55,6.85-6,7.74v65.68h-4v-65.68c-3.45-.89-6-4.01-6-7.74,0-4.42,3.58-8,8-8s8,3.58,8,8Z"/>
      <path class="cls-1" d="m1217.25,326.58c0,3.73-2.55,6.85-6,7.74v65.68h-4v-65.68c-3.45-.89-6-4.01-6-7.74,0-4.42,3.58-8,8-8s8,3.58,8,8Z"/>
      <path class="cls-1" d="m1249,301c-4.42,0-8,3.58-8,8,0,3.74,2.57,6.88,6.05,7.75v61.25h-23.05c-1.1,0-2,.9-2,2v20h4v-18h23.05c1.1,0,2-.9,2-2v-63.27c3.42-.91,5.95-4.02,5.95-7.73,0-4.42-3.58-8-8-8Z"/>
      <path class="cls-1" d="m1106.98,301c4.42,0,8,3.58,8,8,0,3.74-2.57,6.88-6.05,7.75v61.25s23.05,0,23.05,0c1.1,0,2,.9,2,2v20h-4v-18s-23.05,0-23.05,0c-1.1,0-2-.9-2-2v-63.27c-3.42-.91-5.95-4.02-5.95-7.73,0-4.42,3.58-8,8-8Z"/>
      <path class="cls-1" d="m928.5,271c-4.42,0-8,3.39-8,7.56,0,3.53,2.55,6.48,6,7.32v24.12h-48.55v-24.11c3.48-.82,6.05-3.79,6.05-7.33,0-4.17-3.58-7.56-8-7.56s-8,3.39-8,7.56c0,3.51,2.53,6.45,5.95,7.31v24.13h-31.69v-38.52c0-1.1-.9-2-2-2h-51.21v-11.52c3.42-.86,5.95-3.82,5.95-7.35,0-4.2-3.58-7.61-8-7.61s-8,3.41-8,7.61c0,3.56,2.57,6.54,6.05,7.37v11.5h-8.57c-.87-3.71-4.04-6.47-7.82-6.47-4.46,0-8.07,3.81-8.07,8.52s3.61,8.52,8.07,8.52c3.82,0,7.01-2.81,7.85-6.57h8.55v42.69h-36.05c-1.1,0-2,.9-2,2v81.83h4v-79.83h36.05c1.1,0,2-.9,2-2v-44.69h49.21v38.52c0,1.1.9,2,2,2h33.69v31.69c0,1.1.9,2,2,2h36.05v37.31h-76.01v-38.94c0-1.11-.89-2-2-2h-58.83c-.79-3.76-3.72-6.56-7.22-6.56-4.11,0-7.44,3.85-7.44,8.61s3.33,8.61,7.44,8.61c3.53,0,6.48-2.85,7.25-6.66h56.8v38.94c0,1.1.9,2,2,2h78.01v11h4v-54.31c0-1.1-.9-2-2-2h-36.05v-29.69h48.55v86h4v-114.12c3.45-.84,6-3.79,6-7.32,0-4.17-3.58-7.56-8-7.56Z"/>
      <path class="cls-1" d="m734.5,243c-4.42,0-8,3.41-8,7.61,0,3.55,2.55,6.52,6,7.36v142.03h4v-142.03c3.45-.85,6-3.82,6-7.36,0-4.2-3.58-7.61-8-7.61Z"/>
      <path class="cls-1" d="m720,316.17h-36.05v-58.18c3.48-.83,6.05-3.82,6.05-7.38,0-4.2-3.58-7.61-8-7.61s-8,3.41-8,7.61c0,3.53,2.53,6.49,5.95,7.35v32.04h-38.25v-21.97c3.99-.89,6.97-4.28,6.97-8.35,0-4.73-4.04-8.57-9.02-8.57s-9.01,3.84-9.01,8.57c0,4.1,3.02,7.53,7.06,8.37v21.95h-40.06v-38.83c0-1.1-.9-2-2-2h-63.51c-.86-3.75-4.02-6.53-7.79-6.53-4.44,0-8.03,3.84-8.03,8.58s3.59,8.59,8.03,8.59c3.81,0,6.99-2.84,7.82-6.64h61.48v38.83c0,1.1.89,2,2,2h42.06v39.8h-40.86c-1.11,0-2,.9-2,2v64.2h4v-62.2h40.86c1.11,0,2-.89,2-2v-41.8h38.25v24.17c0,1.1.9,2,2,2h36.05v79.83h4v-81.83c0-1.1-.9-2-2-2Z"/>
      <path class="cls-1" d="m509.5,274.11c-4.98,0-9.01,3.84-9.01,8.57,0,4.09,3,7.49,7.01,8.36v43.46h-55.2v-43.45c4.04-.84,7.06-4.27,7.06-8.37,0-4.73-4.03-8.57-9.01-8.57s-9.02,3.84-9.02,8.57c0,4.07,2.98,7.46,6.97,8.35v43.47h-32.46v-36.05c0-1.1-.9-2-2-2h-40.79v-37.68c3.42-.96,5.95-4.28,5.95-8.24,0-4.71-3.58-8.53-8-8.53s-8,3.82-8,8.53c0,4,2.57,7.34,6.05,8.27v37.65h-25.97c-1.01-3.42-4.49-5.95-8.63-5.95-4.94,0-8.95,3.58-8.95,8s4.01,8,8.95,8c4.18,0,7.69-2.57,8.66-6.05h25.94v23.82h-36.05c-1.1,0-2,.89-2,2v73.73h4v-71.73h36.05c1.1,0,2-.9,2-2v-25.82h38.79v36.05c0,1.1.89,2,2,2h34.46v20.3c0,1.11.89,2,2,2h40.86v39.2h4v-41.2c0-1.1-.89-2-2-2h-40.86v-18.3h55.2v61.5h4v-108.96c4.01-.87,7.01-4.27,7.01-8.36,0-4.73-4.03-8.57-9.01-8.57Z"/>
      <path class="cls-1" d="m568.65,274.11c-4.98,0-9.01,3.84-9.01,8.57,0,4.1,3.02,7.53,7.06,8.37v65.75h-40.86c-1.11,0-2,.9-2,2v41.2h4v-39.2h40.86c1.11,0,2-.89,2-2v-67.77c3.99-.89,6.97-4.28,6.97-8.35,0-4.73-4.04-8.57-9.02-8.57Z"/>
      <path class="cls-1" d="m407,373c0,3.73-2.55,6.85-6,7.74v19.26h-4v-19.26c-3.45-.89-6-4.01-6-7.74,0-4.42,3.58-8,8-8s8,3.58,8,8Z"/>
      <path class="cls-1" d="m676,358c0,3.73-2.55,6.85-6,7.74v34.26h-4v-34.26c-3.45-.89-6-4.01-6-7.74,0-4.42,3.58-8,8-8s8,3.58,8,8Z"/>
    </g>
    <g>
      <ellipse class="cls-1" cx="1123.26" cy="355.81" rx="6.78" ry="7.12"/>
      <path class="cls-1" d="m1117.9,357.87h-31.3c-1.1,0-2-.9-2-2v-40.87h-40.06v-4h42.06c1.1,0,2,.9,2,2v40.87h29.3v4Z"/>
    </g>
  </g>
  <g>
    <path class="cls-2" d="m261.56,92.15h-12.16l-1.22,3.05h1.22c1.2,0,2.06.23,2.58.7s.77,1.07.77,1.82-.26,1.33-.77,1.79-1.37.7-2.58.7h-6.74c-1.2,0-2.06-.23-2.58-.7s-.77-1.07-.77-1.82.27-1.36.81-1.83c.54-.47,1.42-.69,2.66-.66l7.86-19.58h-3.27c-1.2,0-2.06-.23-2.58-.7s-.77-1.07-.77-1.82.26-1.35.77-1.82,1.37-.7,2.58-.7l10.82.02,9.96,24.58c1.17,0,1.95.13,2.32.39.75.54,1.12,1.25,1.12,2.12,0,.73-.25,1.33-.76,1.79s-1.36.7-2.56.7h-6.74c-1.2,0-2.06-.23-2.58-.7s-.77-1.07-.77-1.82.26-1.33.77-1.79,1.37-.7,2.58-.7h1.22l-1.2-3.05Zm-2.08-5l-4.03-9.91-4.05,9.91h8.08Z"/>
    <path class="cls-2" d="m290.86,83.9c-.81-.5-1.67-.88-2.56-1.14-.9-.25-1.83-.38-2.81-.38-1.94,0-3.47.32-4.61.95-.5.28-.76.58-.76.9,0,.37.34.74,1.03,1.1.52.26,1.68.51,3.49.76,3.32.46,5.63.91,6.93,1.37,1.71.6,3.03,1.5,3.96,2.69.93,1.19,1.39,2.44,1.39,3.76,0,1.79-.79,3.29-2.37,4.49-2.26,1.74-5.2,2.61-8.81,2.61-1.45,0-2.79-.13-4.02-.38-1.23-.25-2.36-.62-3.38-1.11-.24.21-.5.37-.78.49-.28.11-.56.17-.85.17-.78,0-1.4-.26-1.87-.77s-.7-1.37-.7-2.58v-1.68c0-1.2.23-2.06.7-2.58s1.07-.77,1.82-.77c.6,0,1.11.17,1.51.5.41.33.72.91.95,1.72.76.65,1.68,1.14,2.76,1.48,1.07.33,2.31.5,3.71.5,2.29,0,4.08-.36,5.35-1.07.6-.36.9-.73.9-1.12,0-.65-.43-1.19-1.29-1.61-.86-.42-2.64-.78-5.35-1.07-4.02-.42-6.71-1.24-8.06-2.44-1.35-1.19-2.03-2.65-2.03-4.39s.76-3.28,2.27-4.47c2.05-1.63,4.74-2.44,8.06-2.44,1.16,0,2.27.11,3.33.33,1.07.22,2.09.56,3.06,1.01.31-.23.6-.4.87-.51.27-.11.52-.17.74-.17.68,0,1.25.26,1.71.77s.68,1.37.68,2.58v1.22c0,1.09-.13,1.83-.39,2.22-.52.75-1.23,1.12-2.12,1.12-.6,0-1.13-.19-1.59-.56-.46-.37-.75-.87-.88-1.49Z"/>
    <path class="cls-2" d="m320.87,83.9c-.81-.5-1.67-.88-2.56-1.14-.9-.25-1.83-.38-2.81-.38-1.94,0-3.47.32-4.61.95-.5.28-.76.58-.76.9,0,.37.34.74,1.03,1.1.52.26,1.68.51,3.49.76,3.32.46,5.63.91,6.93,1.37,1.71.6,3.03,1.5,3.96,2.69.93,1.19,1.39,2.44,1.39,3.76,0,1.79-.79,3.29-2.37,4.49-2.26,1.74-5.2,2.61-8.81,2.61-1.45,0-2.79-.13-4.02-.38-1.23-.25-2.36-.62-3.38-1.11-.24.21-.5.37-.78.49-.28.11-.56.17-.85.17-.78,0-1.4-.26-1.87-.77s-.7-1.37-.7-2.58v-1.68c0-1.2.23-2.06.7-2.58s1.07-.77,1.82-.77c.6,0,1.11.17,1.51.5.41.33.72.91.95,1.72.76.65,1.68,1.14,2.76,1.48,1.07.33,2.31.5,3.71.5,2.29,0,4.08-.36,5.35-1.07.6-.36.9-.73.9-1.12,0-.65-.43-1.19-1.29-1.61-.86-.42-2.64-.78-5.35-1.07-4.02-.42-6.71-1.24-8.06-2.44-1.35-1.19-2.03-2.65-2.03-4.39s.76-3.28,2.27-4.47c2.05-1.63,4.74-2.44,8.06-2.44,1.16,0,2.27.11,3.33.33,1.07.22,2.09.56,3.06,1.01.31-.23.6-.4.87-.51.27-.11.52-.17.74-.17.68,0,1.25.26,1.71.77s.68,1.37.68,2.58v1.22c0,1.09-.13,1.83-.39,2.22-.52.75-1.23,1.12-2.12,1.12-.6,0-1.13-.19-1.59-.56-.46-.37-.75-.87-.88-1.49Z"/>
    <path class="cls-2" d="m349.97,100.21v-1.17c-1.25.67-2.64,1.17-4.15,1.5s-2.89.5-4.13.5c-2.69,0-4.87-.71-6.54-2.14s-2.51-3-2.51-4.72c0-2.1,1.07-4.05,3.21-5.85,2.14-1.8,5.1-2.7,8.87-2.7,1.51,0,3.26.16,5.25.49v-1.2c0-.75-.32-1.36-.96-1.83-.64-.47-1.87-.71-3.67-.71-1.48,0-3.4.29-5.76.88-.88.21-1.56.32-2.05.32-.67,0-1.23-.24-1.7-.72-.46-.48-.7-1.09-.7-1.84,0-.42.08-.79.24-1.1.16-.31.39-.56.68-.74.29-.19.9-.41,1.83-.67,1.24-.34,2.5-.61,3.78-.82,1.29-.2,2.45-.31,3.49-.31,3.11,0,5.52.67,7.24,2.01,1.72,1.34,2.58,3.18,2.58,5.51v10.3h.85c1.2,0,2.06.23,2.58.7s.77,1.07.77,1.82-.26,1.33-.77,1.79-1.37.7-2.58.7h-5.86Zm0-8.96c-2-.39-3.85-.59-5.54-.59-2.03,0-3.78.5-5.25,1.49-.91.63-1.37,1.28-1.37,1.93,0,.47.22.85.66,1.15.81.54,1.93.81,3.34.81,1.2,0,2.57-.24,4.09-.71,1.52-.47,2.88-1.11,4.06-1.93v-2.15Z"/>
    <path class="cls-2" d="m377.97,68.54v26.66h6.01c1.2,0,2.06.23,2.58.7s.77,1.07.77,1.82-.26,1.33-.77,1.79-1.37.7-2.58.7h-17.02c-1.2,0-2.06-.23-2.58-.7s-.77-1.07-.77-1.82.26-1.33.77-1.79,1.37-.7,2.58-.7h6.01v-21.66h-4.03c-1.19,0-2.04-.23-2.56-.7s-.78-1.07-.78-1.82.26-1.33.77-1.79,1.37-.7,2.58-.7h9.03Z"/>
    <path class="cls-2" d="m409.98,100.21v-1.17c-1.25.67-2.64,1.17-4.15,1.5s-2.89.5-4.13.5c-2.69,0-4.87-.71-6.54-2.14s-2.51-3-2.51-4.72c0-2.1,1.07-4.05,3.21-5.85,2.14-1.8,5.1-2.7,8.87-2.7,1.51,0,3.26.16,5.25.49v-1.2c0-.75-.32-1.36-.96-1.83-.64-.47-1.87-.71-3.67-.71-1.48,0-3.4.29-5.76.88-.88.21-1.56.32-2.05.32-.67,0-1.23-.24-1.7-.72-.46-.48-.7-1.09-.7-1.84,0-.42.08-.79.24-1.1.16-.31.39-.56.68-.74.29-.19.9-.41,1.83-.67,1.24-.34,2.5-.61,3.78-.82,1.29-.2,2.45-.31,3.49-.31,3.11,0,5.52.67,7.24,2.01,1.72,1.34,2.58,3.18,2.58,5.51v10.3h.85c1.2,0,2.06.23,2.58.7s.77,1.07.77,1.82-.26,1.33-.77,1.79-1.37.7-2.58.7h-5.86Zm0-8.96c-2-.39-3.85-.59-5.54-.59-2.03,0-3.78.5-5.25,1.49-.91.63-1.37,1.28-1.37,1.93,0,.47.22.85.66,1.15.81.54,1.93.81,3.34.81,1.2,0,2.57-.24,4.09-.71,1.52-.47,2.88-1.11,4.06-1.93v-2.15Z"/>
    <path class="cls-2" d="m427.75,78.04v1.42c.81-.8,1.55-1.35,2.21-1.65.66-.3,1.42-.45,2.28-.45.73,0,1.46.18,2.17.54.72.36,1.42.9,2.1,1.61.86-.72,1.74-1.25,2.62-1.6.89-.35,1.79-.52,2.72-.52,1.86,0,3.36.5,4.52,1.49,1.53,1.3,2.29,3.01,2.29,5.13v11.21c1.04,0,1.81.24,2.32.71.5.47.76,1.07.76,1.81s-.25,1.33-.76,1.79-1.36.7-2.56.7h-4.76v-15.8c0-.76-.14-1.29-.42-1.59s-.7-.44-1.27-.44-1.07.15-1.54.44c-.6.41-1.33,1.17-2.2,2.29v10.08c1.04,0,1.81.24,2.32.71.5.47.76,1.07.76,1.81s-.25,1.33-.76,1.79-1.36.7-2.56.7h-4.76v-15.8c0-.75-.14-1.27-.43-1.57-.29-.3-.71-.45-1.28-.45s-1.16.18-1.73.55-1.25,1.09-2.05,2.19v10.08c1.04,0,1.82.24,2.33.71.51.47.77,1.07.77,1.81s-.26,1.33-.77,1.79-1.37.7-2.58.7h-4.52c-1.2,0-2.06-.23-2.58-.7s-.77-1.07-.77-1.82.25-1.33.76-1.79c.5-.46,1.29-.7,2.34-.7v-12.16c-1.06,0-1.84-.24-2.34-.71-.5-.47-.76-1.07-.76-1.81s.26-1.33.77-1.79,1.37-.7,2.58-.7h4.76Z"/>
    <path class="cls-2" d="m475.97,88.3h-20.9v-4.57h20.9v4.57Z"/>
    <path class="cls-2" d="m508.49,89.54c0,1.92-.53,3.78-1.6,5.58-1.07,1.8-2.65,3.23-4.76,4.3-2.11,1.07-4.31,1.6-6.6,1.6s-4.46-.52-6.54-1.57-3.67-2.48-4.76-4.28-1.64-3.69-1.64-5.66.55-3.97,1.66-5.9,2.7-3.45,4.77-4.55c2.08-1.11,4.24-1.66,6.51-1.66s4.47.57,6.58,1.7c2.11,1.13,3.7,2.65,4.77,4.57,1.07,1.91,1.61,3.88,1.61,5.9Zm-5,.02c0-1.61-.58-3.09-1.73-4.44-1.58-1.82-3.65-2.73-6.23-2.73-2.26,0-4.15.72-5.66,2.17-1.51,1.45-2.27,3.12-2.27,5.03,0,1.56.76,3.02,2.29,4.38,1.53,1.36,3.41,2.04,5.64,2.04s4.13-.68,5.66-2.04c1.53-1.36,2.29-2.83,2.29-4.41Z"/>
    <path class="cls-2" d="m535.98,88.3h-20.9v-4.57h20.9v4.57Z"/>
    <path class="cls-2" d="m560,100.21v-1.17c-1.25.67-2.64,1.17-4.15,1.5s-2.89.5-4.13.5c-2.69,0-4.87-.71-6.54-2.14s-2.51-3-2.51-4.72c0-2.1,1.07-4.05,3.21-5.85,2.14-1.8,5.1-2.7,8.87-2.7,1.51,0,3.26.16,5.25.49v-1.2c0-.75-.32-1.36-.96-1.83-.64-.47-1.87-.71-3.67-.71-1.48,0-3.4.29-5.76.88-.88.21-1.56.32-2.05.32-.67,0-1.23-.24-1.7-.72-.46-.48-.7-1.09-.7-1.84,0-.42.08-.79.24-1.1.16-.31.39-.56.68-.74.29-.19.9-.41,1.83-.67,1.24-.34,2.5-.61,3.78-.82,1.29-.2,2.45-.31,3.49-.31,3.11,0,5.52.67,7.24,2.01,1.72,1.34,2.58,3.18,2.58,5.51v10.3h.85c1.2,0,2.06.23,2.58.7s.77,1.07.77,1.82-.26,1.33-.77,1.79-1.37.7-2.58.7h-5.86Zm0-8.96c-2-.39-3.85-.59-5.54-.59-2.03,0-3.78.5-5.25,1.49-.91.63-1.37,1.28-1.37,1.93,0,.47.22.85.66,1.15.81.54,1.93.81,3.34.81,1.2,0,2.57-.24,4.09-.71,1.52-.47,2.88-1.11,4.06-1.93v-2.15Z"/>
    <path class="cls-2" d="m588.01,68.54v26.66h6.01c1.2,0,2.06.23,2.57.7.51.46.77,1.07.77,1.82s-.26,1.33-.77,1.79c-.51.46-1.37.7-2.57.7h-17.02c-1.2,0-2.06-.23-2.58-.7s-.77-1.07-.77-1.82.26-1.33.77-1.79,1.37-.7,2.58-.7h6.01v-21.66h-4.03c-1.19,0-2.04-.23-2.56-.7s-.78-1.07-.78-1.82.26-1.33.77-1.79,1.37-.7,2.58-.7h9.03Z"/>
    <path class="cls-2" d="m620.01,100.21v-1.17c-1.25.67-2.64,1.17-4.15,1.5s-2.89.5-4.13.5c-2.69,0-4.87-.71-6.54-2.14-1.68-1.42-2.51-3-2.51-4.72,0-2.1,1.07-4.05,3.21-5.85,2.14-1.8,5.1-2.7,8.88-2.7,1.51,0,3.26.16,5.25.49v-1.2c0-.75-.32-1.36-.96-1.83-.64-.47-1.87-.71-3.67-.71-1.48,0-3.4.29-5.76.88-.88.21-1.56.32-2.05.32-.67,0-1.23-.24-1.7-.72-.46-.48-.7-1.09-.7-1.84,0-.42.08-.79.24-1.1.16-.31.39-.56.68-.74.29-.19.9-.41,1.83-.67,1.24-.34,2.5-.61,3.78-.82,1.29-.2,2.45-.31,3.49-.31,3.11,0,5.52.67,7.24,2.01,1.72,1.34,2.58,3.18,2.58,5.51v10.3h.85c1.2,0,2.06.23,2.58.7.51.46.77,1.07.77,1.82s-.26,1.33-.77,1.79c-.51.46-1.37.7-2.58.7h-5.86Zm0-8.96c-2-.39-3.85-.59-5.54-.59-2.04,0-3.78.5-5.25,1.49-.91.63-1.37,1.28-1.37,1.93,0,.47.22.85.66,1.15.81.54,1.93.81,3.34.81,1.2,0,2.57-.24,4.09-.71,1.52-.47,2.88-1.11,4.07-1.93v-2.15Z"/>
    <path class="cls-2" d="m647.99,78.04v17.16h6.01c1.2,0,2.06.23,2.58.7.51.46.77,1.07.77,1.82s-.26,1.33-.77,1.79c-.51.46-1.37.7-2.58.7h-17.02c-1.21,0-2.06-.23-2.58-.7-.51-.46-.77-1.07-.77-1.82s.26-1.33.77-1.79c.51-.46,1.37-.7,2.58-.7h6.01v-12.16h-4.03c-1.19,0-2.04-.23-2.56-.7-.52-.46-.78-1.07-.78-1.82s.26-1.33.77-1.79c.51-.46,1.37-.7,2.58-.7h9.03Zm-.68-9.5v5.3h-5.96v-5.3h5.96Z"/>
    <path class="cls-2" d="m671.4,91.88v8.33h-5.86c-1.21,0-2.06-.23-2.58-.7-.51-.46-.77-1.07-.77-1.82s.26-1.33.78-1.79c.52-.46,1.38-.7,2.56-.7h.85v-21.66h-.85c-1.21,0-2.06-.23-2.58-.7-.51-.46-.77-1.07-.77-1.82s.26-1.33.77-1.79c.51-.46,1.37-.7,2.58-.7h5.86v16.87l3.91-3.15c-.41-.7-.61-1.27-.61-1.71,0-.75.25-1.35.76-1.82.5-.46,1.36-.7,2.56-.7h5.71c1.2,0,2.06.23,2.58.7.51.46.77,1.07.77,1.82s-.26,1.33-.77,1.79c-.51.46-1.37.7-2.58.7h-1.39l-6.08,4.93,8.18,7.23h1.46c1.2,0,2.06.23,2.58.7.51.46.77,1.07.77,1.82s-.26,1.33-.77,1.79c-.51.46-1.37.7-2.58.7h-5.76c-1.21,0-2.06-.23-2.58-.7-.51-.46-.77-1.07-.77-1.82,0-.63.28-1.26.83-1.88l-5.3-4.69-.93.76Z"/>
    <path class="cls-2" d="m716.15,78.04v17.16c1.06,0,1.84.24,2.34.71.5.47.76,1.07.76,1.81s-.26,1.33-.77,1.79c-.51.46-1.37.7-2.58.7h-4.76v-1.15c-1.43.65-2.8,1.14-4.1,1.46-1.3.33-2.54.49-3.71.49-1.64,0-3.07-.35-4.27-1.04-1.21-.69-2.16-1.65-2.86-2.87-.5-.88-.76-1.98-.76-3.3v-10.77h-.85c-1.21,0-2.06-.23-2.58-.7-.51-.46-.77-1.07-.77-1.82s.26-1.33.77-1.79c.51-.46,1.37-.7,2.58-.7h5.86v14.89c0,1.06.26,1.84.77,2.33.51.5,1.3.74,2.36.74s2.1-.2,3.26-.6c1.16-.4,2.6-1.12,4.31-2.16v-10.21h-1.81c-1.21,0-2.06-.23-2.58-.7-.51-.46-.77-1.07-.77-1.82s.26-1.33.77-1.79c.51-.46,1.37-.7,2.58-.7h6.81Z"/>
    <path class="cls-2" d="m727.8,78.04v1.42c.81-.8,1.55-1.35,2.21-1.65.66-.3,1.42-.45,2.28-.45.73,0,1.46.18,2.17.54.72.36,1.42.9,2.1,1.61.86-.72,1.74-1.25,2.62-1.6.89-.35,1.79-.52,2.72-.52,1.86,0,3.36.5,4.52,1.49,1.53,1.3,2.29,3.01,2.29,5.13v11.21c1.04,0,1.81.24,2.32.71.5.47.76,1.07.76,1.81s-.25,1.33-.76,1.79c-.5.46-1.36.7-2.56.7h-4.76v-15.8c0-.76-.14-1.29-.42-1.59-.28-.29-.7-.44-1.27-.44s-1.07.15-1.54.44c-.6.41-1.33,1.17-2.2,2.29v10.08c1.04,0,1.81.24,2.32.71.5.47.76,1.07.76,1.81s-.25,1.33-.76,1.79c-.5.46-1.36.7-2.56.7h-4.76v-15.8c0-.75-.14-1.27-.43-1.57-.29-.3-.71-.45-1.28-.45s-1.16.18-1.73.55c-.57.37-1.25,1.09-2.05,2.19v10.08c1.04,0,1.82.24,2.33.71.51.47.77,1.07.77,1.81s-.26,1.33-.77,1.79c-.51.46-1.37.7-2.58.7h-4.52c-1.21,0-2.06-.23-2.58-.7-.51-.46-.77-1.07-.77-1.82s.25-1.33.76-1.79,1.29-.7,2.34-.7v-12.16c-1.06,0-1.84-.24-2.34-.71-.5-.47-.76-1.07-.76-1.81s.26-1.33.77-1.79c.51-.46,1.37-.7,2.58-.7h4.76Z"/>
    <path class="cls-2" d="m764.35,93.47h6.69l-7.2,13.57c-.42.8-.95,1.2-1.59,1.2-.42,0-.79-.14-1.09-.42-.3-.28-.45-.59-.45-.93,0-.24.06-.58.17-1l3.47-12.43Z"/>
    <path class="cls-2" d="m828.04,75.62v19.58h5.05c1.2,0,2.06.23,2.58.7.51.46.77,1.07.77,1.82s-.26,1.33-.77,1.79c-.51.46-1.37.7-2.58.7h-15.11c-1.21,0-2.06-.23-2.58-.7-.51-.46-.77-1.07-.77-1.82s.26-1.33.77-1.79c.51-.46,1.37-.7,2.58-.7h5.05v-19.58h-5.05c-1.21,0-2.06-.23-2.58-.7-.51-.46-.77-1.07-.77-1.82s.26-1.35.77-1.82c.51-.46,1.37-.7,2.58-.7l15.11.02c1.2,0,2.06.23,2.58.68.51.46.77,1.06.77,1.81s-.26,1.35-.77,1.82c-.51.46-1.37.7-2.58.7h-5.05Z"/>
    <path class="cls-2" d="m851.41,69.62h6.69l-7.2,13.57c-.42.8-.95,1.2-1.59,1.2-.42,0-.79-.14-1.09-.42-.3-.28-.45-.59-.45-.93,0-.24.06-.58.17-1l3.47-12.43Z"/>
    <path class="cls-2" d="m877.82,78.04v1.42c.81-.8,1.55-1.35,2.21-1.65.66-.3,1.42-.45,2.28-.45.73,0,1.46.18,2.17.54.72.36,1.42.9,2.1,1.61.86-.72,1.74-1.25,2.62-1.6.89-.35,1.79-.52,2.72-.52,1.86,0,3.36.5,4.52,1.49,1.53,1.3,2.29,3.01,2.29,5.13v11.21c1.04,0,1.81.24,2.32.71.5.47.76,1.07.76,1.81s-.25,1.33-.76,1.79c-.5.46-1.36.7-2.56.7h-4.76v-15.8c0-.76-.14-1.29-.42-1.59-.28-.29-.7-.44-1.27-.44s-1.07.15-1.54.44c-.6.41-1.33,1.17-2.2,2.29v10.08c1.04,0,1.81.24,2.32.71.5.47.76,1.07.76,1.81s-.25,1.33-.76,1.79c-.5.46-1.36.7-2.56.7h-4.76v-15.8c0-.75-.14-1.27-.43-1.57-.29-.3-.71-.45-1.28-.45s-1.16.18-1.73.55c-.57.37-1.25,1.09-2.05,2.19v10.08c1.04,0,1.82.24,2.33.71.51.47.77,1.07.77,1.81s-.26,1.33-.77,1.79c-.51.46-1.37.7-2.58.7h-4.52c-1.21,0-2.06-.23-2.58-.7-.51-.46-.77-1.07-.77-1.82s.25-1.33.76-1.79,1.29-.7,2.34-.7v-12.16c-1.06,0-1.84-.24-2.34-.71-.5-.47-.76-1.07-.76-1.81s.26-1.33.77-1.79c.51-.46,1.37-.7,2.58-.7h4.76Z"/>
    <path class="cls-2" d="m951.68,92.15h-12.16l-1.22,3.05h1.22c1.2,0,2.06.23,2.58.7.51.46.77,1.07.77,1.82s-.26,1.33-.77,1.79c-.51.46-1.37.7-2.58.7h-6.74c-1.21,0-2.06-.23-2.58-.7-.51-.46-.77-1.07-.77-1.82s.27-1.36.81-1.83c.54-.47,1.42-.69,2.66-.66l7.86-19.58h-3.27c-1.21,0-2.06-.23-2.58-.7-.51-.46-.77-1.07-.77-1.82s.26-1.35.77-1.82c.51-.46,1.37-.7,2.58-.7l10.82.02,9.96,24.58c1.17,0,1.94.13,2.32.39.75.54,1.12,1.25,1.12,2.12,0,.73-.25,1.33-.76,1.79-.5.46-1.36.7-2.56.7h-6.74c-1.21,0-2.06-.23-2.58-.7-.51-.46-.77-1.07-.77-1.82s.26-1.33.77-1.79c.51-.46,1.37-.7,2.58-.7h1.22l-1.2-3.05Zm-2.08-5l-4.03-9.91-4.05,9.91h8.08Z"/>
    <path class="cls-2" d="m978.07,68.54v26.66h6.01c1.2,0,2.06.23,2.58.7.51.46.77,1.07.77,1.82s-.26,1.33-.77,1.79c-.51.46-1.37.7-2.58.7h-17.02c-1.21,0-2.06-.23-2.58-.7-.51-.46-.77-1.07-.77-1.82s.26-1.33.77-1.79c.51-.46,1.37-.7,2.58-.7h6.01v-21.66h-4.03c-1.19,0-2.04-.23-2.56-.7-.52-.46-.78-1.07-.78-1.82s.26-1.33.77-1.79c.51-.46,1.37-.7,2.58-.7h9.03Z"/>
    <path class="cls-2" d="m1008.05,78.04v17.16h6.01c1.2,0,2.06.23,2.58.7.51.46.77,1.07.77,1.82s-.26,1.33-.77,1.79c-.51.46-1.37.7-2.58.7h-17.02c-1.21,0-2.06-.23-2.58-.7-.51-.46-.77-1.07-.77-1.82s.26-1.33.77-1.79c.51-.46,1.37-.7,2.58-.7h6.01v-12.16h-4.03c-1.19,0-2.04-.23-2.56-.7-.52-.46-.78-1.07-.78-1.82s.26-1.33.77-1.79c.51-.46,1.37-.7,2.58-.7h9.03Zm-.68-9.5v5.3h-5.96v-5.3h5.96Z"/>
    <path class="cls-2" d="m1055.36,95.2v-19.58h-.78c-1.21,0-2.06-.23-2.58-.7-.51-.46-.77-1.07-.77-1.82s.26-1.35.77-1.82c.51-.46,1.37-.7,2.58-.7h12.55c2.99,0,5.4.83,7.23,2.5,1.82,1.67,2.73,3.65,2.73,5.94,0,1.09-.21,2.12-.63,3.08-.42.96-1.07,1.85-1.93,2.66,1.58.94,2.76,2.05,3.55,3.31.79,1.26,1.18,2.69,1.18,4.28,0,1.27-.29,2.45-.85,3.54-.42.83-.94,1.49-1.56,1.98-.83.68-1.85,1.24-3.05,1.67-1.21.43-2.71.65-4.52.65h-14.7c-1.21,0-2.06-.23-2.58-.7-.51-.46-.77-1.07-.77-1.82s.26-1.33.78-1.79c.52-.46,1.38-.7,2.56-.7h.78Zm5-12.3h5.49c1.97,0,3.6-.5,4.91-1.49.88-.67,1.32-1.5,1.32-2.49,0-.88-.42-1.65-1.25-2.31s-2.15-.99-3.96-.99h-6.52v7.28Zm0,12.3h8.64c2.03,0,3.47-.3,4.3-.9.63-.46.95-1.11.95-1.95,0-1.01-.63-2-1.88-2.98-1.25-.98-3.05-1.46-5.4-1.46h-6.62v7.3Z"/>
    <path class="cls-2" d="m1098.06,78.04v17.16h6.01c1.2,0,2.06.23,2.58.7.51.46.77,1.07.77,1.82s-.26,1.33-.77,1.79c-.51.46-1.37.7-2.58.7h-17.02c-1.21,0-2.06-.23-2.58-.7-.51-.46-.77-1.07-.77-1.82s.26-1.33.77-1.79c.51-.46,1.37-.7,2.58-.7h6.01v-12.16h-4.03c-1.19,0-2.04-.23-2.56-.7-.52-.46-.78-1.07-.78-1.82s.26-1.33.77-1.79c.51-.46,1.37-.7,2.58-.7h9.03Zm-.68-9.5v5.3h-5.96v-5.3h5.96Z"/>
    <path class="cls-2" d="m1128.09,68.54v26.66h6.01c1.2,0,2.06.23,2.58.7.51.46.77,1.07.77,1.82s-.26,1.33-.77,1.79c-.51.46-1.37.7-2.58.7h-17.02c-1.21,0-2.06-.23-2.58-.7-.51-.46-.77-1.07-.77-1.82s.26-1.33.77-1.79c.51-.46,1.37-.7,2.58-.7h6.01v-21.66h-4.03c-1.19,0-2.04-.23-2.56-.7-.52-.46-.78-1.07-.78-1.82s.26-1.33.77-1.79c.51-.46,1.37-.7,2.58-.7h9.03Z"/>
    <path class="cls-2" d="m1160.1,100.21v-1.17c-1.25.67-2.64,1.17-4.15,1.5s-2.89.5-4.13.5c-2.69,0-4.87-.71-6.54-2.14-1.68-1.42-2.51-3-2.51-4.72,0-2.1,1.07-4.05,3.21-5.85,2.14-1.8,5.1-2.7,8.88-2.7,1.51,0,3.26.16,5.25.49v-1.2c0-.75-.32-1.36-.96-1.83-.64-.47-1.87-.71-3.67-.71-1.48,0-3.4.29-5.76.88-.88.21-1.56.32-2.05.32-.67,0-1.23-.24-1.7-.72-.46-.48-.7-1.09-.7-1.84,0-.42.08-.79.24-1.1.16-.31.39-.56.68-.74.29-.19.9-.41,1.83-.67,1.24-.34,2.5-.61,3.78-.82,1.29-.2,2.45-.31,3.49-.31,3.11,0,5.52.67,7.24,2.01,1.72,1.34,2.58,3.18,2.58,5.51v10.3h.85c1.2,0,2.06.23,2.58.7.51.46.77,1.07.77,1.82s-.26,1.33-.77,1.79c-.51.46-1.37.7-2.58.7h-5.86Zm0-8.96c-2-.39-3.85-.59-5.54-.59-2.04,0-3.78.5-5.25,1.49-.91.63-1.37,1.28-1.37,1.93,0,.47.22.85.66,1.15.81.54,1.93.81,3.34.81,1.2,0,2.57-.24,4.09-.71,1.52-.47,2.88-1.11,4.07-1.93v-2.15Z"/>
    <path class="cls-2" d="m1188.1,68.54v26.66h6.01c1.2,0,2.06.23,2.58.7.51.46.77,1.07.77,1.82s-.26,1.33-.77,1.79c-.51.46-1.37.7-2.58.7h-17.02c-1.21,0-2.06-.23-2.58-.7-.51-.46-.77-1.07-.77-1.82s.26-1.33.77-1.79c.51-.46,1.37-.7,2.58-.7h6.01v-21.66h-4.03c-1.19,0-2.04-.23-2.56-.7-.52-.46-.78-1.07-.78-1.82s.26-1.33.77-1.79c.51-.46,1.37-.7,2.58-.7h9.03Z"/>
  </g>
  <g>
    <path class="cls-3" d="m436.35,128.41l-8.02,24.5h-6.09l-5.39-16.59-5.56,16.59h-6.06l-8.05-24.5h5.88l5.53,17.22,5.77-17.22h5.25l5.6,17.36,5.7-17.36h5.43Z"/>
    <path class="cls-3" d="m456.05,145.03h-14.24c.26,1.17.86,2.09,1.82,2.77.96.68,2.15,1.01,3.57,1.01.98,0,1.85-.15,2.61-.44.76-.29,1.46-.75,2.12-1.38l2.9,3.15c-1.77,2.03-4.36,3.04-7.77,3.04-2.12,0-4-.41-5.64-1.24-1.63-.83-2.89-1.98-3.78-3.45-.89-1.47-1.33-3.14-1.33-5s.44-3.51,1.31-4.99c.88-1.48,2.08-2.64,3.6-3.47,1.53-.83,3.24-1.24,5.13-1.24s3.51.4,5,1.19c1.49.79,2.67,1.93,3.52,3.41.85,1.48,1.28,3.2,1.28,5.16,0,.07-.03.56-.1,1.47Zm-12.77-6.06c-.84.7-1.35,1.66-1.54,2.87h9.27c-.19-1.19-.7-2.14-1.54-2.85-.84-.71-1.87-1.07-3.08-1.07s-2.28.35-3.12,1.05Z"/>
    <path class="cls-3" d="m475.7,135c1.43.8,2.56,1.94,3.38,3.4.82,1.46,1.22,3.16,1.22,5.09s-.41,3.63-1.22,5.09c-.82,1.46-1.94,2.59-3.38,3.39-1.44.81-3.03,1.21-4.78,1.21-2.59,0-4.56-.82-5.92-2.45v2.17h-5.21v-25.97h5.46v9.14c1.38-1.52,3.27-2.27,5.67-2.27,1.75,0,3.34.4,4.78,1.21Zm-2.28,12.28c.9-.94,1.35-2.21,1.35-3.8s-.45-2.85-1.35-3.8c-.9-.95-2.05-1.42-3.45-1.42s-2.55.47-3.45,1.42c-.9.94-1.35,2.21-1.35,3.8s.45,2.85,1.35,3.8c.9.95,2.05,1.42,3.45,1.42s2.55-.47,3.45-1.42Z"/>
    <path class="cls-3" d="m494.23,128.41h11.13c2.66,0,5.01.51,7.05,1.52,2.04,1.02,3.63,2.44,4.76,4.29,1.13,1.84,1.7,3.99,1.7,6.44s-.57,4.6-1.7,6.44c-1.13,1.84-2.72,3.27-4.76,4.29-2.04,1.02-4.39,1.52-7.05,1.52h-11.13v-24.5Zm10.85,19.85c2.45,0,4.4-.68,5.86-2.05,1.46-1.36,2.19-3.21,2.19-5.55s-.73-4.18-2.19-5.55c-1.46-1.37-3.41-2.05-5.86-2.05h-5.18v15.19h5.18Z"/>
    <path class="cls-3" d="m541.1,145.03h-14.24c.26,1.17.86,2.09,1.82,2.77.96.68,2.15,1.01,3.57,1.01.98,0,1.85-.15,2.61-.44.76-.29,1.46-.75,2.12-1.38l2.9,3.15c-1.77,2.03-4.36,3.04-7.77,3.04-2.12,0-4-.41-5.64-1.24-1.63-.83-2.89-1.98-3.78-3.45-.89-1.47-1.33-3.14-1.33-5s.44-3.51,1.31-4.99c.88-1.48,2.08-2.64,3.6-3.47,1.53-.83,3.24-1.24,5.13-1.24s3.51.4,5,1.19c1.49.79,2.67,1.93,3.52,3.41.85,1.48,1.28,3.2,1.28,5.16,0,.07-.03.56-.1,1.47Zm-12.77-6.06c-.84.7-1.35,1.66-1.54,2.87h9.27c-.19-1.19-.7-2.14-1.54-2.85-.84-.71-1.87-1.07-3.08-1.07s-2.28.35-3.12,1.05Z"/>
    <path class="cls-3" d="m563.18,134.08l-7.94,18.83h-5.64l-7.91-18.83h5.63l5.21,12.81,5.39-12.81h5.25Z"/>
    <path class="cls-3" d="m583.24,145.03h-14.24c.26,1.17.86,2.09,1.82,2.77.96.68,2.15,1.01,3.57,1.01.98,0,1.85-.15,2.61-.44.76-.29,1.46-.75,2.12-1.38l2.9,3.15c-1.77,2.03-4.36,3.04-7.77,3.04-2.12,0-4-.41-5.64-1.24-1.63-.83-2.89-1.98-3.78-3.45-.89-1.47-1.33-3.14-1.33-5s.44-3.51,1.31-4.99c.88-1.48,2.08-2.64,3.6-3.47,1.53-.83,3.24-1.24,5.13-1.24s3.51.4,5,1.19c1.49.79,2.67,1.93,3.52,3.41.85,1.48,1.28,3.2,1.28,5.16,0,.07-.03.56-.1,1.47Zm-12.77-6.06c-.84.7-1.35,1.66-1.54,2.87h9.27c-.19-1.19-.7-2.14-1.54-2.85-.84-.71-1.87-1.07-3.08-1.07s-2.28.35-3.12,1.05Z"/>
    <path class="cls-3" d="m586.98,126.94h5.46v25.97h-5.46v-25.97Z"/>
    <path class="cls-3" d="m601.14,151.94c-1.58-.83-2.81-1.98-3.69-3.45-.89-1.47-1.33-3.14-1.33-5s.44-3.54,1.33-5c.89-1.47,2.12-2.62,3.69-3.45,1.57-.83,3.35-1.24,5.34-1.24s3.76.41,5.32,1.24c1.56.83,2.79,1.98,3.68,3.45.89,1.47,1.33,3.14,1.33,5s-.44,3.54-1.33,5c-.89,1.47-2.11,2.62-3.68,3.45-1.56.83-3.34,1.24-5.32,1.24s-3.76-.41-5.34-1.24Zm8.79-4.66c.9-.94,1.35-2.21,1.35-3.8s-.45-2.85-1.35-3.8c-.9-.95-2.05-1.42-3.45-1.42s-2.56.47-3.46,1.42c-.91.94-1.37,2.21-1.37,3.8s.46,2.85,1.37,3.8c.91.95,2.06,1.42,3.46,1.42s2.55-.47,3.45-1.42Z"/>
    <path class="cls-3" d="m636.35,135c1.43.8,2.56,1.94,3.38,3.4.82,1.46,1.22,3.16,1.22,5.09s-.41,3.63-1.22,5.09c-.82,1.46-1.94,2.59-3.38,3.39-1.44.81-3.03,1.21-4.78,1.21-2.4,0-4.29-.76-5.67-2.27v8.79h-5.46v-25.62h5.21v2.17c1.35-1.63,3.33-2.45,5.92-2.45,1.75,0,3.34.4,4.78,1.21Zm-2.28,12.28c.9-.94,1.35-2.21,1.35-3.8s-.45-2.85-1.35-3.8c-.9-.95-2.05-1.42-3.45-1.42s-2.55.47-3.45,1.42c-.9.94-1.35,2.21-1.35,3.8s.45,2.85,1.35,3.8c.9.95,2.05,1.42,3.45,1.42s2.55-.47,3.45-1.42Z"/>
    <path class="cls-3" d="m662.93,145.03h-14.24c.26,1.17.86,2.09,1.82,2.77.96.68,2.15,1.01,3.57,1.01.98,0,1.85-.15,2.61-.44.76-.29,1.46-.75,2.12-1.38l2.9,3.15c-1.77,2.03-4.36,3.04-7.77,3.04-2.12,0-4-.41-5.64-1.24-1.63-.83-2.89-1.98-3.78-3.45-.89-1.47-1.33-3.14-1.33-5s.44-3.51,1.31-4.99c.88-1.48,2.08-2.64,3.6-3.47,1.53-.83,3.24-1.24,5.13-1.24s3.51.4,5,1.19c1.49.79,2.67,1.93,3.52,3.41.85,1.48,1.28,3.2,1.28,5.16,0,.07-.03.56-.1,1.47Zm-12.77-6.06c-.84.7-1.35,1.66-1.54,2.87h9.27c-.19-1.19-.7-2.14-1.54-2.85-.84-.71-1.87-1.07-3.08-1.07s-2.28.35-3.12,1.05Z"/>
    <path class="cls-3" d="m674.54,134.5c1.11-.47,2.39-.7,3.83-.7v5.04c-.61-.05-1.02-.07-1.23-.07-1.56,0-2.79.44-3.67,1.31-.89.88-1.33,2.19-1.33,3.94v8.89h-5.46v-18.83h5.21v2.48c.65-.91,1.53-1.6,2.64-2.06Z"/>
    <path class="cls-3" d="m710.88,153.33l-2.94-2.73c-2.33,1.82-5.06,2.73-8.19,2.73-1.77,0-3.37-.29-4.79-.86-1.42-.57-2.54-1.37-3.34-2.4-.8-1.03-1.21-2.18-1.21-3.46,0-1.52.43-2.85,1.28-4.01.85-1.15,2.22-2.26,4.11-3.31-.89-.91-1.53-1.78-1.92-2.61-.4-.83-.6-1.69-.6-2.57,0-1.19.31-2.24.95-3.15.63-.91,1.52-1.62,2.68-2.12,1.16-.5,2.49-.75,4.01-.75,2.12,0,3.83.51,5.11,1.52s1.92,2.39,1.92,4.11c0,1.26-.38,2.38-1.14,3.36s-1.98,1.92-3.66,2.83l4.48,4.17c.54-1.12.94-2.39,1.22-3.81l4.38,1.36c-.47,2.17-1.21,4.02-2.24,5.56l2.87,2.66-2.97,3.46Zm-6.16-5.71l-5.92-5.53c-1.1.63-1.88,1.25-2.35,1.85-.47.61-.7,1.29-.7,2.06,0,.91.4,1.65,1.19,2.21.79.56,1.85.84,3.19.84,1.7,0,3.23-.48,4.58-1.44Zm-5.76-15.19c-.48.42-.72.96-.72,1.61,0,.49.13.95.38,1.38.26.43.76,1.01,1.51,1.73,1.19-.63,2.02-1.2,2.48-1.7.47-.5.7-1.04.7-1.63s-.21-1.1-.63-1.47c-.42-.37-1.02-.56-1.79-.56-.82,0-1.46.21-1.94.63Z"/>
    <path class="cls-3" d="m743.99,140.27h5.18v9.94c-1.33,1-2.87,1.77-4.62,2.31-1.75.54-3.51.8-5.28.8-2.54,0-4.83-.54-6.86-1.63s-3.62-2.59-4.78-4.52c-1.16-1.92-1.73-4.1-1.73-6.53s.58-4.6,1.73-6.53c1.16-1.93,2.76-3.43,4.81-4.52,2.05-1.08,4.36-1.63,6.93-1.63,2.15,0,4.09.36,5.84,1.08,1.75.72,3.22,1.77,4.41,3.15l-3.64,3.36c-1.75-1.84-3.86-2.76-6.33-2.76-1.56,0-2.95.33-4.17.98-1.21.65-2.16,1.57-2.83,2.76-.68,1.19-1.01,2.56-1.01,4.1s.34,2.87,1.01,4.06,1.62,2.12,2.82,2.78c1.2.67,2.57,1,4.11,1,1.63,0,3.1-.35,4.41-1.05v-7.17Z"/>
    <path class="cls-3" d="m761.89,134.5c1.11-.47,2.38-.7,3.83-.7v5.04c-.61-.05-1.01-.07-1.22-.07-1.56,0-2.79.44-3.68,1.31s-1.33,2.19-1.33,3.94v8.89h-5.46v-18.83h5.22v2.48c.65-.91,1.53-1.6,2.64-2.06Z"/>
    <path class="cls-3" d="m783.19,135.88c1.56,1.39,2.34,3.48,2.34,6.28v10.75h-5.11v-2.35c-1.03,1.75-2.94,2.62-5.74,2.62-1.45,0-2.7-.24-3.76-.73-1.06-.49-1.87-1.17-2.43-2.03-.56-.86-.84-1.84-.84-2.94,0-1.75.66-3.13,1.98-4.13,1.32-1,3.35-1.5,6.11-1.5h4.34c0-1.19-.36-2.11-1.08-2.75-.72-.64-1.81-.96-3.25-.96-1,0-1.99.16-2.96.47-.97.31-1.79.74-2.47,1.28l-1.96-3.81c1.03-.72,2.26-1.28,3.69-1.68,1.43-.4,2.91-.59,4.43-.59,2.92,0,5.16.69,6.72,2.08Zm-4.66,12.98c.72-.43,1.24-1.07,1.54-1.91v-1.92h-3.75c-2.24,0-3.36.73-3.36,2.21,0,.7.27,1.25.82,1.66.55.41,1.3.61,2.26.61s1.76-.22,2.48-.65Z"/>
    <path class="cls-3" d="m806.38,135c1.43.8,2.56,1.94,3.38,3.4.82,1.46,1.23,3.16,1.23,5.09s-.41,3.63-1.23,5.09c-.82,1.46-1.94,2.59-3.38,3.39-1.44.81-3.03,1.21-4.78,1.21-2.4,0-4.29-.76-5.67-2.27v8.79h-5.46v-25.62h5.22v2.17c1.35-1.63,3.32-2.45,5.92-2.45,1.75,0,3.34.4,4.78,1.21Zm-2.28,12.28c.9-.94,1.35-2.21,1.35-3.8s-.45-2.85-1.35-3.8c-.9-.95-2.05-1.42-3.45-1.42s-2.55.47-3.45,1.42c-.9.94-1.35,2.21-1.35,3.8s.45,2.85,1.35,3.8c.9.95,2.05,1.42,3.45,1.42s2.55-.47,3.45-1.42Z"/>
    <path class="cls-3" d="m831.72,135.9c1.44,1.4,2.15,3.48,2.15,6.23v10.78h-5.46v-9.94c0-1.49-.33-2.61-.98-3.34-.65-.73-1.6-1.1-2.83-1.1-1.38,0-2.47.43-3.29,1.28-.82.85-1.22,2.12-1.22,3.8v9.31h-5.46v-25.97h5.46v9.1c.72-.72,1.6-1.28,2.62-1.66,1.03-.38,2.15-.58,3.36-.58,2.33,0,4.22.7,5.65,2.1Z"/>
    <path class="cls-3" d="m839.09,130.58c-.63-.58-.94-1.31-.94-2.17s.31-1.59.94-2.17c.63-.58,1.45-.88,2.45-.88s1.82.28,2.45.84.94,1.26.94,2.1c0,.91-.31,1.66-.94,2.26-.63.6-1.45.89-2.45.89s-1.82-.29-2.45-.88Zm-.28,3.5h5.46v18.83h-5.46v-18.83Z"/>
    <path class="cls-3" d="m853.03,151.94c-1.6-.83-2.85-1.98-3.75-3.45-.9-1.47-1.35-3.14-1.35-5s.45-3.54,1.35-5c.9-1.47,2.15-2.62,3.75-3.45,1.6-.83,3.4-1.24,5.41-1.24s3.72.41,5.2,1.24c1.48.83,2.56,2.01,3.24,3.55l-4.23,2.27c-.98-1.73-2.39-2.59-4.24-2.59-1.42,0-2.6.47-3.54,1.4-.93.93-1.4,2.21-1.4,3.81s.47,2.88,1.4,3.81c.93.93,2.11,1.4,3.54,1.4,1.87,0,3.28-.86,4.24-2.59l4.23,2.31c-.68,1.49-1.76,2.66-3.24,3.5s-3.21,1.26-5.2,1.26-3.81-.41-5.41-1.24Z"/>
    <path class="cls-3" d="m880.32,128.41h11.13c2.66,0,5.01.51,7.05,1.52,2.04,1.02,3.63,2.44,4.76,4.29,1.13,1.84,1.7,3.99,1.7,6.44s-.57,4.6-1.7,6.44c-1.13,1.84-2.72,3.27-4.76,4.29-2.04,1.02-4.39,1.52-7.05,1.52h-11.13v-24.5Zm10.85,19.85c2.45,0,4.4-.68,5.86-2.05,1.46-1.36,2.19-3.21,2.19-5.55s-.73-4.18-2.19-5.55c-1.46-1.37-3.41-2.05-5.86-2.05h-5.18v15.19h5.18Z"/>
    <path class="cls-3" d="m927.18,145.03h-14.25c.26,1.17.86,2.09,1.82,2.77s2.15,1.01,3.57,1.01c.98,0,1.85-.15,2.61-.44.76-.29,1.46-.75,2.12-1.38l2.9,3.15c-1.77,2.03-4.36,3.04-7.77,3.04-2.12,0-4-.41-5.63-1.24-1.63-.83-2.89-1.98-3.78-3.45-.89-1.47-1.33-3.14-1.33-5s.44-3.51,1.31-4.99c.88-1.48,2.08-2.64,3.6-3.47,1.53-.83,3.24-1.24,5.13-1.24s3.51.4,5,1.19c1.49.79,2.67,1.93,3.52,3.41.85,1.48,1.28,3.2,1.28,5.16,0,.07-.04.56-.1,1.47Zm-12.78-6.06c-.84.7-1.35,1.66-1.54,2.87h9.28c-.19-1.19-.7-2.14-1.54-2.85-.84-.71-1.87-1.07-3.08-1.07s-2.28.35-3.12,1.05Z"/>
    <path class="cls-3" d="m932.67,152.61c-1.49-.39-2.68-.87-3.57-1.45l1.82-3.92c.84.54,1.86.97,3.05,1.31,1.19.34,2.36.51,3.5.51,2.31,0,3.46-.57,3.46-1.71,0-.54-.32-.92-.95-1.16-.63-.23-1.6-.43-2.91-.59-1.54-.23-2.81-.5-3.81-.81-1-.3-1.87-.84-2.61-1.61-.74-.77-1.1-1.87-1.1-3.29,0-1.19.34-2.25,1.03-3.17.69-.92,1.69-1.64,3.01-2.15s2.88-.77,4.67-.77c1.33,0,2.65.15,3.97.44,1.32.29,2.41.69,3.27,1.21l-1.82,3.88c-1.66-.93-3.46-1.4-5.42-1.4-1.17,0-2.04.16-2.62.49-.58.33-.88.75-.88,1.26,0,.58.31.99.95,1.23.63.23,1.63.46,3.01.67,1.54.26,2.8.53,3.78.82.98.29,1.83.82,2.55,1.59.72.77,1.08,1.84,1.08,3.22,0,1.17-.35,2.21-1.05,3.12-.7.91-1.72,1.62-3.06,2.12-1.34.5-2.93.75-4.78.75-1.56,0-3.09-.19-4.59-.58Z"/>
    <path class="cls-3" d="m949.79,130.58c-.63-.58-.94-1.31-.94-2.17s.31-1.59.94-2.17c.63-.58,1.45-.88,2.45-.88s1.82.28,2.45.84.94,1.26.94,2.1c0,.91-.31,1.66-.94,2.26-.63.6-1.45.89-2.45.89s-1.82-.29-2.45-.88Zm-.28,3.5h5.46v18.83h-5.46v-18.83Z"/>
    <path class="cls-3" d="m979.47,134.08v15.68c0,3.45-.9,6.02-2.7,7.7-1.8,1.68-4.42,2.52-7.88,2.52-1.82,0-3.55-.22-5.18-.67-1.63-.44-2.99-1.08-4.06-1.92l2.17-3.92c.79.65,1.8,1.17,3.01,1.56,1.21.38,2.43.58,3.64.58,1.89,0,3.28-.43,4.18-1.28.9-.85,1.35-2.14,1.35-3.87v-.8c-1.42,1.56-3.41,2.34-5.95,2.34-1.73,0-3.31-.38-4.74-1.14-1.44-.76-2.57-1.83-3.41-3.2-.84-1.38-1.26-2.96-1.26-4.76s.42-3.38,1.26-4.76c.84-1.38,1.98-2.44,3.41-3.2,1.43-.76,3.01-1.14,4.74-1.14,2.73,0,4.81.9,6.23,2.69v-2.42h5.18Zm-6.77,12.16c.92-.85,1.38-1.97,1.38-3.34s-.46-2.49-1.38-3.34c-.92-.85-2.11-1.28-3.55-1.28s-2.64.43-3.57,1.28c-.93.85-1.4,1.97-1.4,3.34s.47,2.49,1.4,3.34c.93.85,2.12,1.28,3.57,1.28s2.63-.43,3.55-1.28Z"/>
    <path class="cls-3" d="m1001.64,135.9c1.44,1.4,2.15,3.48,2.15,6.23v10.78h-5.46v-9.94c0-1.49-.33-2.61-.98-3.34-.65-.73-1.6-1.1-2.83-1.1-1.38,0-2.47.43-3.29,1.28-.82.85-1.22,2.12-1.22,3.8v9.31h-5.46v-18.83h5.22v2.21c.72-.79,1.62-1.41,2.69-1.84,1.07-.43,2.25-.65,3.54-.65,2.33,0,4.22.7,5.65,2.1Z"/>
    <path class="cls-3" d="m1027.28,145.03h-14.25c.26,1.17.86,2.09,1.82,2.77s2.15,1.01,3.57,1.01c.98,0,1.85-.15,2.61-.44.76-.29,1.46-.75,2.12-1.38l2.9,3.15c-1.77,2.03-4.36,3.04-7.77,3.04-2.12,0-4-.41-5.63-1.24-1.63-.83-2.89-1.98-3.78-3.45-.89-1.47-1.33-3.14-1.33-5s.44-3.51,1.31-4.99c.88-1.48,2.08-2.64,3.6-3.47,1.53-.83,3.24-1.24,5.13-1.24s3.51.4,5,1.19c1.49.79,2.67,1.93,3.52,3.41.85,1.48,1.28,3.2,1.28,5.16,0,.07-.04.56-.1,1.47Zm-12.78-6.06c-.84.7-1.35,1.66-1.54,2.87h9.28c-.19-1.19-.7-2.14-1.54-2.85-.84-.71-1.87-1.07-3.08-1.07s-2.28.35-3.12,1.05Z"/>
    <path class="cls-3" d="m1038.88,134.5c1.11-.47,2.38-.7,3.83-.7v5.04c-.61-.05-1.01-.07-1.22-.07-1.56,0-2.79.44-3.68,1.31s-1.33,2.19-1.33,3.94v8.89h-5.46v-18.83h5.22v2.48c.65-.91,1.53-1.6,2.64-2.06Z"/>
  </g>
  <g>
    <path class="cls-1" d="m1234.48,111h-8.69l-26.77,72.52h10.99l5.47-15.91h29.31l5.47,15.91h10.99l-26.77-72.52Zm-15.67,46.93l11.32-32.92,11.33,32.92h-22.65Z"/>
    <path class="cls-1" d="m1289.97,111h10.19v10.17h-10.19v-10.17Zm0,20.75h10.19v51.77h-10.19v-51.77Z"/>
    <path class="cls-1" d="m1208.03,279.32v9.68h-6c-3.86,0-6.85-1.2-8.97-3.59-2.11-2.4-3.17-5.77-3.17-10.12v-63.08h10.19v63.17c0,1.26.27,2.24.82,2.92.55.68,1.33,1.02,2.33,1.02h4.79Z"/>
    <rect class="cls-1" x="1271.1" width="9" height="400"/>
    <path class="cls-1" d="m1164.89,169.72h10.19v10.17h-10.19v-10.17Zm0,20.75h10.19v51.77h-10.19v-51.77Z"/>
    <path class="cls-1" d="m1148.38,251.41c-1.13-2.46-2.76-4.52-4.9-6.16-2.13-1.65-4.66-2.68-7.59-3.12,2.93-.53,5.38-1.57,7.37-3.12,1.98-1.55,3.46-3.41,4.42-5.59.97-2.18,1.45-4.51,1.45-7,0-4.06-.78-7.55-2.35-10.47-1.56-2.93-3.93-5.19-7.09-6.78-3.16-1.59-7.1-2.39-11.79-2.39h-28.62v72.52h29.47c4.3,0,8.06-.81,11.29-2.45,3.23-1.63,5.71-3.94,7.44-6.93,1.73-2.99,2.6-6.45,2.6-10.38v-.15c0-2.86-.57-5.52-1.7-7.98Zm-38.96-35.21h16.63c4.26,0,7.46.9,9.59,2.69,2.13,1.8,3.2,4.51,3.2,8.13s-.96,6.07-2.87,7.83c-1.91,1.76-4.76,2.64-8.52,2.64h-18.03v-21.3Zm30.37,42.44c0,3.56-1.18,6.32-3.55,8.28-2.37,1.96-6.13,2.94-11.29,2.94h-15.53v-23.19h18.03c2.86,0,5.21.48,7.04,1.42,1.83.95,3.17,2.3,4.02,4.06.85,1.76,1.27,3.87,1.27,6.33v.15Z"/>
    <path class="cls-1" d="m1254.32,221.06c-1.6-2.88-3.93-5.07-6.99-6.58-3.06-1.51-6.74-2.27-11.04-2.27-3.93,0-7.5.66-10.71,1.97-3.22,1.31-5.8,3.15-7.77,5.51l7.44,5.09c1.53-1.13,3.29-2.01,5.27-2.64,1.98-.63,4-.95,6.07-.95,3.33,0,5.9.94,7.72,2.82,1.81,1.88,2.72,4.51,2.72,7.91v2.19h-14.29c-5.86,0-10.24,1.28-13.14,3.84-2.9,2.56-4.34,6.4-4.34,11.52,0,5.39,1.58,9.4,4.74,12.04,3.16,2.64,7.94,3.96,14.34,3.96,2.16,0,4.11-.22,5.84-.67,1.73-.45,3.26-1.12,4.57-2.02.85-.57,1.61-1.25,2.28-2.04v3.98h9.69v-33.27c0-4.05-.8-7.52-2.4-10.4Zm-10.16,34.89c-1.92.83-4.82,1.25-8.72,1.25-3.56,0-6.22-.63-7.97-1.9-1.75-1.26-2.62-3.21-2.62-5.83,0-2.43.66-4.23,1.97-5.41,1.31-1.18,3.3-1.77,5.97-1.77h14.24v9.78c0,1.76-.96,3.06-2.87,3.89Z"/>
  </g>
</svg>